%TF.GenerationSoftware,KiCad,Pcbnew,8.0.6*%
%TF.CreationDate,2024-12-24T19:54:04-08:00*%
%TF.ProjectId,OBDGauge,4f424447-6175-4676-952e-6b696361645f,rev?*%
%TF.SameCoordinates,Original*%
%TF.FileFunction,Legend,Bot*%
%TF.FilePolarity,Positive*%
%FSLAX46Y46*%
G04 Gerber Fmt 4.6, Leading zero omitted, Abs format (unit mm)*
G04 Created by KiCad (PCBNEW 8.0.6) date 2024-12-24 19:54:04*
%MOMM*%
%LPD*%
G01*
G04 APERTURE LIST*
%ADD10C,0.100000*%
%ADD11C,0.200000*%
%ADD12C,0.225000*%
%ADD13C,0.262500*%
%ADD14C,0.150000*%
%ADD15C,0.108000*%
%ADD16C,0.120000*%
G04 APERTURE END LIST*
D10*
X28330404Y-56659409D02*
X38651218Y-56659409D01*
X38651218Y-59357970D01*
X28330404Y-59357970D01*
X28330404Y-56659409D01*
D11*
X28065346Y-39859334D02*
X30265346Y-39859334D01*
X31065346Y-39859334D02*
X33265346Y-39859334D01*
X34065346Y-39859334D02*
X36265346Y-39859334D01*
X37065346Y-39859334D02*
X38845346Y-39859334D01*
X38845346Y-39859334D02*
X38845346Y-42059334D01*
X38845346Y-42859334D02*
X38845346Y-45059334D01*
X38845346Y-45859334D02*
X38845346Y-48059334D01*
X38845346Y-48859334D02*
X38845346Y-51059334D01*
X38845346Y-51859334D02*
X38845346Y-54059334D01*
X38845346Y-54859334D02*
X38845346Y-57059334D01*
X38845346Y-57859334D02*
X38845346Y-59859334D01*
X38845346Y-59859334D02*
X36645346Y-59859334D01*
X35845346Y-59859334D02*
X33645346Y-59859334D01*
X32845346Y-59859334D02*
X30645346Y-59859334D01*
X29845346Y-59859334D02*
X28065346Y-59859334D01*
X28065346Y-59859334D02*
X28065346Y-57659334D01*
X28065346Y-56859334D02*
X28065346Y-54659334D01*
X28065346Y-53859334D02*
X28065346Y-51659334D01*
X28065346Y-50859334D02*
X28065346Y-48659334D01*
X28065346Y-47859334D02*
X28065346Y-45659334D01*
X28065346Y-44859334D02*
X28065346Y-42659334D01*
X28065346Y-41859334D02*
X28065346Y-39859334D01*
D12*
G36*
X60764127Y-56825612D02*
G01*
X60764127Y-57024157D01*
X60805494Y-57049026D01*
X60848189Y-57071905D01*
X60890856Y-57090995D01*
X60910306Y-57098041D01*
X60956839Y-57110156D01*
X61001884Y-57116350D01*
X61040439Y-57117922D01*
X61088125Y-57115823D01*
X61134026Y-57109526D01*
X61178141Y-57099032D01*
X61220470Y-57084339D01*
X61261805Y-57065019D01*
X61302284Y-57038094D01*
X61322686Y-57019321D01*
X61354290Y-56977616D01*
X61379638Y-56930490D01*
X61391709Y-56902988D01*
X61408285Y-56853012D01*
X61418722Y-56799468D01*
X61423020Y-56742355D01*
X61423143Y-56730504D01*
X61423143Y-56624649D01*
X61420422Y-56570745D01*
X61410373Y-56510650D01*
X61392918Y-56453563D01*
X61368058Y-56399485D01*
X61345767Y-56362699D01*
X61311513Y-56317730D01*
X61273600Y-56280383D01*
X61232027Y-56250658D01*
X61186793Y-56228554D01*
X61137900Y-56214073D01*
X61085346Y-56207213D01*
X61063300Y-56206603D01*
X61018917Y-56209894D01*
X60973605Y-56220725D01*
X60964821Y-56223798D01*
X60921989Y-56243696D01*
X60881281Y-56271151D01*
X60876014Y-56275382D01*
X60847923Y-56233671D01*
X60826555Y-56223798D01*
X60784802Y-56243215D01*
X60781492Y-56247441D01*
X60765500Y-56298360D01*
X60764127Y-56327503D01*
X60764127Y-56428791D01*
X60770326Y-56484424D01*
X60781712Y-56509391D01*
X60822071Y-56533092D01*
X60827215Y-56533303D01*
X60865463Y-56516914D01*
X60886126Y-56467748D01*
X60903720Y-56417939D01*
X60905030Y-56416164D01*
X60944556Y-56386644D01*
X60964162Y-56378013D01*
X61009005Y-56365520D01*
X61055836Y-56361372D01*
X61059123Y-56361356D01*
X61104315Y-56364766D01*
X61149563Y-56376397D01*
X61190135Y-56396282D01*
X61225877Y-56428904D01*
X61254666Y-56470833D01*
X61263115Y-56486286D01*
X61283475Y-56535867D01*
X61294439Y-56588698D01*
X61296527Y-56625724D01*
X61296527Y-56728892D01*
X61292845Y-56782928D01*
X61279901Y-56835449D01*
X61254587Y-56883536D01*
X61237616Y-56903526D01*
X61198860Y-56932358D01*
X61155185Y-56950065D01*
X61109846Y-56959442D01*
X61065694Y-56962937D01*
X61049891Y-56963170D01*
X61002037Y-56960683D01*
X60956653Y-56953224D01*
X60913737Y-56940792D01*
X60890962Y-56931736D01*
X60890962Y-56825612D01*
X61019995Y-56825612D01*
X61065252Y-56818130D01*
X61085501Y-56804388D01*
X61104675Y-56754619D01*
X61104845Y-56748236D01*
X61088958Y-56696451D01*
X61085501Y-56692353D01*
X61043751Y-56672560D01*
X61019995Y-56670860D01*
X60795121Y-56670860D01*
X60750048Y-56678437D01*
X60729835Y-56692353D01*
X60710443Y-56741856D01*
X60710271Y-56748236D01*
X60722056Y-56801650D01*
X60723680Y-56804388D01*
X60764127Y-56825612D01*
G37*
G36*
X60455501Y-56447329D02*
G01*
X60455501Y-56498913D01*
X60416786Y-56467227D01*
X60379224Y-56447329D01*
X60335700Y-56434433D01*
X60291702Y-56430151D01*
X60288659Y-56430134D01*
X60241671Y-56433953D01*
X60193482Y-56447667D01*
X60151174Y-56471356D01*
X60114746Y-56505019D01*
X60110606Y-56509928D01*
X60083249Y-56553582D01*
X60066024Y-56604948D01*
X60058932Y-56664029D01*
X60058729Y-56676771D01*
X60058729Y-56945975D01*
X60015019Y-56955232D01*
X59999378Y-56967469D01*
X59980204Y-57016971D01*
X59980034Y-57023351D01*
X59995012Y-57073924D01*
X59999598Y-57079503D01*
X60041234Y-57099049D01*
X60064884Y-57100728D01*
X60179189Y-57100728D01*
X60224263Y-57093245D01*
X60244476Y-57079503D01*
X60263650Y-57029734D01*
X60263820Y-57023351D01*
X60248113Y-56971566D01*
X60244695Y-56967469D01*
X60201934Y-56947004D01*
X60185344Y-56945975D01*
X60185344Y-56679726D01*
X60196814Y-56626315D01*
X60207546Y-56612291D01*
X60249440Y-56590132D01*
X60294814Y-56584887D01*
X60340687Y-56591177D01*
X60371751Y-56604768D01*
X60409175Y-56635396D01*
X60443085Y-56672825D01*
X60455501Y-56688055D01*
X60455501Y-56945975D01*
X60411521Y-56950481D01*
X60392413Y-56960215D01*
X60364680Y-57004345D01*
X60362298Y-57023351D01*
X60377277Y-57073924D01*
X60381862Y-57079503D01*
X60423296Y-57099049D01*
X60446928Y-57100728D01*
X60590910Y-57100728D01*
X60635983Y-57093245D01*
X60656196Y-57079503D01*
X60675588Y-57029734D01*
X60675760Y-57023351D01*
X60657647Y-56972806D01*
X60646084Y-56959946D01*
X60602067Y-56946644D01*
X60582337Y-56945975D01*
X60582337Y-56602081D01*
X60626046Y-56592941D01*
X60641688Y-56580857D01*
X60660644Y-56531088D01*
X60660812Y-56524705D01*
X60644925Y-56472920D01*
X60641468Y-56468822D01*
X60599831Y-56449029D01*
X60576182Y-56447329D01*
X60455501Y-56447329D01*
G37*
G36*
X59452265Y-56156719D02*
G01*
X59494015Y-56176513D01*
X59497472Y-56180610D01*
X59513359Y-56232395D01*
X59513189Y-56238778D01*
X59494015Y-56288547D01*
X59473766Y-56302289D01*
X59428509Y-56309771D01*
X59406967Y-56309771D01*
X59406967Y-56504018D01*
X59418583Y-56495101D01*
X59459564Y-56468390D01*
X59501049Y-56448672D01*
X59506992Y-56446428D01*
X59552056Y-56434208D01*
X59597989Y-56430134D01*
X59614292Y-56430543D01*
X59661324Y-56436666D01*
X59705544Y-56450138D01*
X59746951Y-56470959D01*
X59785544Y-56499128D01*
X59821325Y-56534646D01*
X59847669Y-56568362D01*
X59877049Y-56619112D01*
X59897677Y-56674002D01*
X59909555Y-56733032D01*
X59912769Y-56786924D01*
X59911409Y-56821528D01*
X59902483Y-56878589D01*
X59885227Y-56931202D01*
X59859639Y-56979366D01*
X59825721Y-57023083D01*
X59820213Y-57028918D01*
X59778611Y-57064575D01*
X59738717Y-57087914D01*
X59694912Y-57104585D01*
X59647197Y-57114588D01*
X59595571Y-57117922D01*
X59586081Y-57117693D01*
X59539559Y-57109676D01*
X59497532Y-57091861D01*
X59479948Y-57081210D01*
X59442805Y-57052106D01*
X59406967Y-57014754D01*
X59406967Y-57100728D01*
X59258589Y-57100728D01*
X59234957Y-57099049D01*
X59193523Y-57079503D01*
X59188938Y-57073924D01*
X59173959Y-57023351D01*
X59174133Y-57016971D01*
X59193743Y-56967469D01*
X59213989Y-56953552D01*
X59258589Y-56945975D01*
X59280132Y-56945975D01*
X59280132Y-56790417D01*
X59406967Y-56790417D01*
X59409365Y-56821768D01*
X59426544Y-56873578D01*
X59457085Y-56914004D01*
X59463504Y-56919958D01*
X59504301Y-56945837D01*
X59549458Y-56959281D01*
X59596670Y-56963170D01*
X59607804Y-56962978D01*
X59653951Y-56957360D01*
X59697640Y-56941996D01*
X59736475Y-56914004D01*
X59755747Y-56891182D01*
X59778979Y-56841842D01*
X59785934Y-56788268D01*
X59780567Y-56738097D01*
X59762267Y-56688425D01*
X59730979Y-56644531D01*
X59723989Y-56637308D01*
X59686229Y-56608185D01*
X59643790Y-56590711D01*
X59596670Y-56584887D01*
X59586820Y-56585120D01*
X59540452Y-56593274D01*
X59498892Y-56613078D01*
X59462141Y-56644531D01*
X59433045Y-56684406D01*
X59413486Y-56734268D01*
X59406967Y-56790417D01*
X59280132Y-56790417D01*
X59280132Y-56155019D01*
X59428509Y-56155019D01*
X59452265Y-56156719D01*
G37*
D13*
G36*
X38336708Y-60964641D02*
G01*
X38336708Y-61269456D01*
X37959462Y-61269456D01*
X37959462Y-61152219D01*
X37952230Y-61077532D01*
X37938946Y-61044142D01*
X37891185Y-61011822D01*
X37885090Y-61011535D01*
X37836211Y-61038315D01*
X37832261Y-61044142D01*
X37813131Y-61113009D01*
X37811488Y-61152219D01*
X37811488Y-61480482D01*
X38507507Y-61480482D01*
X38560092Y-61470278D01*
X38583674Y-61451539D01*
X38606298Y-61383672D01*
X38606498Y-61374969D01*
X38587542Y-61304353D01*
X38583417Y-61298765D01*
X38534870Y-61271774D01*
X38507507Y-61269456D01*
X38484426Y-61269456D01*
X38484426Y-60495694D01*
X38507507Y-60495694D01*
X38560092Y-60485491D01*
X38583674Y-60466752D01*
X38606298Y-60398885D01*
X38606498Y-60390181D01*
X38587753Y-60319565D01*
X38583674Y-60313978D01*
X38535098Y-60286987D01*
X38507507Y-60284669D01*
X37844058Y-60285768D01*
X37844058Y-60612931D01*
X37851200Y-60687747D01*
X37864318Y-60721375D01*
X37911526Y-60753331D01*
X37917660Y-60753615D01*
X37967302Y-60727136D01*
X37971259Y-60721375D01*
X37990153Y-60652170D01*
X37991776Y-60612931D01*
X37991776Y-60495694D01*
X38336708Y-60495694D01*
X38336708Y-60753615D01*
X38206685Y-60753615D01*
X38202477Y-60680285D01*
X38195914Y-60656895D01*
X38151916Y-60615679D01*
X38132569Y-60612931D01*
X38083436Y-60639710D01*
X38079483Y-60645537D01*
X38060590Y-60714405D01*
X38058967Y-60753615D01*
X38058967Y-60964641D01*
X38063475Y-61038114D01*
X38070507Y-61061727D01*
X38114073Y-61102600D01*
X38132569Y-61105324D01*
X38181883Y-61082613D01*
X38195914Y-61061361D01*
X38206422Y-60986998D01*
X38206685Y-60964641D01*
X38336708Y-60964641D01*
G37*
G36*
X35464155Y-60495694D02*
G01*
X35464155Y-61269456D01*
X35314898Y-61269456D01*
X35262403Y-61279788D01*
X35238988Y-61298765D01*
X35216364Y-61366268D01*
X35216163Y-61374969D01*
X35233638Y-61443931D01*
X35238988Y-61451539D01*
X35287328Y-61478192D01*
X35314898Y-61480482D01*
X35761387Y-61480482D01*
X35813972Y-61470278D01*
X35837554Y-61451539D01*
X35859923Y-61383672D01*
X35860122Y-61374969D01*
X35841587Y-61304353D01*
X35837554Y-61298765D01*
X35788978Y-61271774D01*
X35761387Y-61269456D01*
X35612130Y-61269456D01*
X35612130Y-60495694D01*
X35761387Y-60495694D01*
X35813972Y-60485491D01*
X35837554Y-60466752D01*
X35859923Y-60398885D01*
X35860122Y-60390181D01*
X35841587Y-60319565D01*
X35837554Y-60313978D01*
X35788978Y-60286987D01*
X35761387Y-60284669D01*
X35314898Y-60284669D01*
X35262403Y-60295001D01*
X35238988Y-60313978D01*
X35216364Y-60381481D01*
X35216163Y-60390181D01*
X35233638Y-60459144D01*
X35238988Y-60466752D01*
X35287328Y-60493405D01*
X35314898Y-60495694D01*
X35464155Y-60495694D01*
G37*
G36*
X32519026Y-61105324D02*
G01*
X32519026Y-61376068D01*
X32567288Y-61409979D01*
X32617099Y-61441178D01*
X32666877Y-61467210D01*
X32689569Y-61476818D01*
X32743857Y-61493339D01*
X32796409Y-61501784D01*
X32841390Y-61503929D01*
X32897025Y-61501067D01*
X32950576Y-61492480D01*
X33002043Y-61478169D01*
X33051427Y-61458133D01*
X33099651Y-61431789D01*
X33146876Y-61395073D01*
X33170678Y-61369473D01*
X33207550Y-61312602D01*
X33237122Y-61248340D01*
X33251205Y-61210837D01*
X33270545Y-61142688D01*
X33282721Y-61069673D01*
X33287735Y-60991792D01*
X33287878Y-60975632D01*
X33287878Y-60831284D01*
X33284705Y-60757778D01*
X33272980Y-60675830D01*
X33252616Y-60597984D01*
X33223612Y-60524241D01*
X33197606Y-60474079D01*
X33157644Y-60412758D01*
X33113412Y-60361830D01*
X33064909Y-60321295D01*
X33012137Y-60291154D01*
X32955095Y-60271407D01*
X32893782Y-60262053D01*
X32868061Y-60261221D01*
X32816282Y-60265709D01*
X32763418Y-60280478D01*
X32753170Y-60284669D01*
X32703198Y-60311802D01*
X32655707Y-60349240D01*
X32649562Y-60355010D01*
X32616789Y-60298132D01*
X32591859Y-60284669D01*
X32543147Y-60311147D01*
X32539286Y-60316909D01*
X32520629Y-60386344D01*
X32519026Y-60426085D01*
X32519026Y-60564204D01*
X32526259Y-60640068D01*
X32539543Y-60674114D01*
X32586628Y-60706434D01*
X32592629Y-60706720D01*
X32637252Y-60684372D01*
X32661359Y-60617327D01*
X32681885Y-60549407D01*
X32683414Y-60546985D01*
X32729528Y-60506731D01*
X32752400Y-60494962D01*
X32804717Y-60477926D01*
X32859354Y-60472269D01*
X32863189Y-60472247D01*
X32915912Y-60476898D01*
X32968701Y-60492758D01*
X33016036Y-60519874D01*
X33057735Y-60564359D01*
X33091322Y-60621535D01*
X33101179Y-60642606D01*
X33124933Y-60710218D01*
X33137724Y-60782260D01*
X33140160Y-60832749D01*
X33140160Y-60973433D01*
X33135865Y-61047118D01*
X33120763Y-61118738D01*
X33091230Y-61184311D01*
X33071430Y-61211570D01*
X33026215Y-61250886D01*
X32975261Y-61275032D01*
X32922366Y-61287820D01*
X32870854Y-61292585D01*
X32852418Y-61292903D01*
X32796588Y-61289512D01*
X32743640Y-61279340D01*
X32693572Y-61262387D01*
X32667001Y-61250038D01*
X32667001Y-61105324D01*
X32817540Y-61105324D01*
X32870339Y-61095121D01*
X32893963Y-61076382D01*
X32916333Y-61008515D01*
X32916531Y-60999812D01*
X32897997Y-60929196D01*
X32893963Y-60923608D01*
X32845255Y-60896617D01*
X32817540Y-60894299D01*
X32555186Y-60894299D01*
X32502601Y-60904631D01*
X32479019Y-60923608D01*
X32456395Y-60991111D01*
X32456195Y-60999812D01*
X32469944Y-61072648D01*
X32471838Y-61076382D01*
X32519026Y-61105324D01*
G37*
G36*
X30262911Y-60261797D02*
G01*
X30316703Y-60270426D01*
X30368458Y-60289411D01*
X30418175Y-60318752D01*
X30465855Y-60358448D01*
X30511497Y-60408500D01*
X30529322Y-60431863D01*
X30568855Y-60493939D01*
X30601200Y-60561256D01*
X30626357Y-60633815D01*
X30644326Y-60711616D01*
X30655108Y-60794658D01*
X30658702Y-60882941D01*
X30658127Y-60918881D01*
X30651658Y-61005035D01*
X30638001Y-61085913D01*
X30617156Y-61161513D01*
X30589124Y-61231836D01*
X30553904Y-61296882D01*
X30511497Y-61356650D01*
X30496509Y-61374485D01*
X30450188Y-61421085D01*
X30401829Y-61457329D01*
X30351433Y-61483218D01*
X30298999Y-61498751D01*
X30244527Y-61503929D01*
X30204043Y-61501164D01*
X30145616Y-61486648D01*
X30089949Y-61459690D01*
X30037040Y-61420290D01*
X29995057Y-61377953D01*
X29954989Y-61326975D01*
X29939834Y-61304461D01*
X29906225Y-61245120D01*
X29878726Y-61181414D01*
X29857338Y-61113343D01*
X29842061Y-61040907D01*
X29832895Y-60964107D01*
X29829839Y-60882941D01*
X29977814Y-60882941D01*
X29977893Y-60894009D01*
X29982911Y-60968098D01*
X29998202Y-61045516D01*
X30023687Y-61115193D01*
X30059366Y-61177132D01*
X30090646Y-61216476D01*
X30134820Y-61256272D01*
X30187888Y-61283745D01*
X30244527Y-61292903D01*
X30288700Y-61287328D01*
X30342429Y-61263777D01*
X30387292Y-61227370D01*
X30429431Y-61176399D01*
X30434433Y-61169059D01*
X30468729Y-61106084D01*
X30492864Y-61035553D01*
X30506837Y-60957466D01*
X30510727Y-60882941D01*
X30510648Y-60871963D01*
X30505646Y-60798380D01*
X30490403Y-60721283D01*
X30464998Y-60651651D01*
X30429431Y-60589484D01*
X30398082Y-60549641D01*
X30353900Y-60509341D01*
X30300938Y-60481521D01*
X30244527Y-60472247D01*
X30200166Y-60477822D01*
X30146305Y-60501373D01*
X30101425Y-60537780D01*
X30059366Y-60588751D01*
X30054349Y-60596092D01*
X30019944Y-60659124D01*
X29995733Y-60729804D01*
X29981716Y-60808131D01*
X29977814Y-60882941D01*
X29829839Y-60882941D01*
X29830328Y-60849864D01*
X29835828Y-60770264D01*
X29847438Y-60695082D01*
X29865160Y-60624319D01*
X29888992Y-60557975D01*
X29918935Y-60496049D01*
X29954989Y-60438542D01*
X29978800Y-60406852D01*
X30020017Y-60360964D01*
X30072006Y-60317326D01*
X30126754Y-60286157D01*
X30184261Y-60267455D01*
X30244527Y-60261221D01*
X30262911Y-60261797D01*
G37*
D12*
G36*
X61130880Y-59369042D02*
G01*
X61130880Y-59566512D01*
X61085158Y-59566512D01*
X61040162Y-59574089D01*
X61020092Y-59588006D01*
X61000700Y-59637508D01*
X61000528Y-59643888D01*
X61015506Y-59694461D01*
X61020092Y-59700040D01*
X61061526Y-59719586D01*
X61085158Y-59721265D01*
X61277499Y-59721265D01*
X61322572Y-59713782D01*
X61342785Y-59700040D01*
X61361959Y-59650271D01*
X61362129Y-59643888D01*
X61345881Y-59592103D01*
X61342346Y-59588006D01*
X61300847Y-59568212D01*
X61277499Y-59566512D01*
X61257715Y-59566512D01*
X61257715Y-58999087D01*
X61277499Y-58999087D01*
X61322572Y-58991605D01*
X61342785Y-58977863D01*
X61361959Y-58928094D01*
X61362129Y-58921711D01*
X61346242Y-58869926D01*
X61342785Y-58865828D01*
X61301149Y-58846035D01*
X61277499Y-58844335D01*
X61085158Y-58844335D01*
X61040162Y-58851912D01*
X61020092Y-58865828D01*
X61000700Y-58915331D01*
X61000528Y-58921711D01*
X61015506Y-58972284D01*
X61020092Y-58977863D01*
X61061526Y-58997408D01*
X61085158Y-58999087D01*
X61130880Y-58999087D01*
X61130880Y-59188229D01*
X60905786Y-58999087D01*
X60933043Y-58982161D01*
X60940517Y-58930308D01*
X60926746Y-58878326D01*
X60921173Y-58870127D01*
X60879537Y-58846375D01*
X60855887Y-58844335D01*
X60726634Y-58844335D01*
X60681561Y-58851912D01*
X60661348Y-58865828D01*
X60641956Y-58915331D01*
X60641784Y-58921711D01*
X60656762Y-58972284D01*
X60661348Y-58977863D01*
X60702935Y-58997761D01*
X60722237Y-58999087D01*
X60949750Y-59199513D01*
X60910680Y-59232367D01*
X60876839Y-59269877D01*
X60844250Y-59314910D01*
X60830168Y-59337339D01*
X60802938Y-59386321D01*
X60780419Y-59433725D01*
X60759121Y-59485372D01*
X60739042Y-59541261D01*
X60730810Y-59566512D01*
X60696958Y-59566512D01*
X60652330Y-59574089D01*
X60632332Y-59588006D01*
X60612940Y-59637508D01*
X60612768Y-59643888D01*
X60628655Y-59695894D01*
X60632112Y-59700040D01*
X60673343Y-59719586D01*
X60696958Y-59721265D01*
X60811923Y-59721265D01*
X60829592Y-59669120D01*
X60847975Y-59618004D01*
X60867074Y-59567916D01*
X60886888Y-59518857D01*
X60898532Y-59491285D01*
X60922051Y-59440428D01*
X60947029Y-59395393D01*
X60971072Y-59361788D01*
X61006167Y-59327297D01*
X61047154Y-59299889D01*
X61053064Y-59296770D01*
X61130880Y-59369042D01*
G37*
G36*
X59977272Y-59360176D02*
G01*
X60506376Y-59360176D01*
X60506376Y-59205424D01*
X59977272Y-59205424D01*
X59977272Y-59360176D01*
G37*
G36*
X61074525Y-61905046D02*
G01*
X61074525Y-62102516D01*
X61028803Y-62102516D01*
X60983807Y-62110093D01*
X60963737Y-62124010D01*
X60944345Y-62173512D01*
X60944173Y-62179892D01*
X60959151Y-62230465D01*
X60963737Y-62236044D01*
X61005171Y-62255590D01*
X61028803Y-62257269D01*
X61221144Y-62257269D01*
X61266217Y-62249786D01*
X61286430Y-62236044D01*
X61305604Y-62186275D01*
X61305774Y-62179892D01*
X61289526Y-62128107D01*
X61285991Y-62124010D01*
X61244492Y-62104216D01*
X61221144Y-62102516D01*
X61201360Y-62102516D01*
X61201360Y-61535091D01*
X61221144Y-61535091D01*
X61266217Y-61527609D01*
X61286430Y-61513867D01*
X61305604Y-61464098D01*
X61305774Y-61457715D01*
X61289887Y-61405930D01*
X61286430Y-61401832D01*
X61244794Y-61382039D01*
X61221144Y-61380339D01*
X61028803Y-61380339D01*
X60983807Y-61387916D01*
X60963737Y-61401832D01*
X60944345Y-61451335D01*
X60944173Y-61457715D01*
X60959151Y-61508288D01*
X60963737Y-61513867D01*
X61005171Y-61533412D01*
X61028803Y-61535091D01*
X61074525Y-61535091D01*
X61074525Y-61724233D01*
X60849431Y-61535091D01*
X60876688Y-61518165D01*
X60884162Y-61466312D01*
X60870391Y-61414330D01*
X60864818Y-61406131D01*
X60823182Y-61382379D01*
X60799532Y-61380339D01*
X60670279Y-61380339D01*
X60625206Y-61387916D01*
X60604993Y-61401832D01*
X60585601Y-61451335D01*
X60585429Y-61457715D01*
X60600407Y-61508288D01*
X60604993Y-61513867D01*
X60646580Y-61533765D01*
X60665882Y-61535091D01*
X60893395Y-61735517D01*
X60854325Y-61768371D01*
X60820484Y-61805881D01*
X60787895Y-61850914D01*
X60773813Y-61873343D01*
X60746583Y-61922325D01*
X60724064Y-61969729D01*
X60702766Y-62021376D01*
X60682687Y-62077265D01*
X60674455Y-62102516D01*
X60640603Y-62102516D01*
X60595975Y-62110093D01*
X60575977Y-62124010D01*
X60556585Y-62173512D01*
X60556413Y-62179892D01*
X60572300Y-62231898D01*
X60575757Y-62236044D01*
X60616988Y-62255590D01*
X60640603Y-62257269D01*
X60755568Y-62257269D01*
X60773237Y-62205124D01*
X60791620Y-62154008D01*
X60810719Y-62103920D01*
X60830533Y-62054861D01*
X60842177Y-62027289D01*
X60865696Y-61976432D01*
X60890674Y-61931397D01*
X60914717Y-61897792D01*
X60949812Y-61863301D01*
X60990799Y-61835893D01*
X60996709Y-61832774D01*
X61074525Y-61905046D01*
G37*
G36*
X60122931Y-61896180D02*
G01*
X60122931Y-62129652D01*
X60130409Y-62183212D01*
X60140296Y-62201386D01*
X60180798Y-62222690D01*
X60186019Y-62222879D01*
X60228787Y-62205227D01*
X60232180Y-62201386D01*
X60248924Y-62150256D01*
X60249766Y-62129652D01*
X60249766Y-61896180D01*
X60430896Y-61896180D01*
X60475970Y-61888603D01*
X60496183Y-61874687D01*
X60515357Y-61824918D01*
X60515527Y-61818535D01*
X60500716Y-61767904D01*
X60496183Y-61762384D01*
X60454546Y-61742868D01*
X60430896Y-61741428D01*
X60249766Y-61741428D01*
X60249766Y-61508225D01*
X60242192Y-61454785D01*
X60232180Y-61436490D01*
X60191280Y-61414920D01*
X60186019Y-61414728D01*
X60143468Y-61432381D01*
X60140076Y-61436222D01*
X60123332Y-61487515D01*
X60122491Y-61508225D01*
X60122931Y-61741428D01*
X59941800Y-61741428D01*
X59896804Y-61748910D01*
X59876734Y-61762652D01*
X59857342Y-61812109D01*
X59857170Y-61818535D01*
X59872149Y-61869107D01*
X59876734Y-61874687D01*
X59918168Y-61894480D01*
X59941800Y-61896180D01*
X60122931Y-61896180D01*
G37*
G36*
X61048173Y-54259990D02*
G01*
X61048173Y-54493462D01*
X61055652Y-54547022D01*
X61065539Y-54565196D01*
X61106041Y-54586500D01*
X61111261Y-54586689D01*
X61154029Y-54569037D01*
X61157423Y-54565196D01*
X61174167Y-54514066D01*
X61175009Y-54493462D01*
X61175009Y-54259990D01*
X61356139Y-54259990D01*
X61401213Y-54252413D01*
X61421425Y-54238497D01*
X61440599Y-54188728D01*
X61440769Y-54182345D01*
X61425959Y-54131714D01*
X61421425Y-54126194D01*
X61379789Y-54106678D01*
X61356139Y-54105238D01*
X61175009Y-54105238D01*
X61175009Y-53872035D01*
X61167435Y-53818595D01*
X61157423Y-53800300D01*
X61116523Y-53778730D01*
X61111261Y-53778538D01*
X61068711Y-53796191D01*
X61065319Y-53800032D01*
X61048575Y-53851325D01*
X61047734Y-53872035D01*
X61048173Y-54105238D01*
X60867043Y-54105238D01*
X60822047Y-54112720D01*
X60801977Y-54126462D01*
X60782585Y-54175919D01*
X60782413Y-54182345D01*
X60797391Y-54232917D01*
X60801977Y-54238497D01*
X60843411Y-54258290D01*
X60867043Y-54259990D01*
X61048173Y-54259990D01*
G37*
G36*
X60290899Y-53658175D02*
G01*
X60290899Y-54466326D01*
X60162964Y-54466326D01*
X60117785Y-54473903D01*
X60097678Y-54487820D01*
X60078286Y-54537322D01*
X60078114Y-54543702D01*
X60093093Y-54594275D01*
X60097678Y-54599854D01*
X60139226Y-54619400D01*
X60162964Y-54621079D01*
X60545668Y-54621079D01*
X60590742Y-54613596D01*
X60610954Y-54599854D01*
X60630128Y-54550085D01*
X60630298Y-54543702D01*
X60614411Y-54491917D01*
X60610954Y-54487820D01*
X60569318Y-54468026D01*
X60545668Y-54466326D01*
X60417514Y-54466326D01*
X60417514Y-53868811D01*
X60530721Y-53906693D01*
X60571607Y-53916096D01*
X60612267Y-53893151D01*
X60613372Y-53891647D01*
X60630683Y-53840428D01*
X60630958Y-53831734D01*
X60617989Y-53780956D01*
X60578049Y-53753670D01*
X60563474Y-53748179D01*
X60290899Y-53658175D01*
G37*
G36*
X59717612Y-54466326D02*
G01*
X59439981Y-54466326D01*
X59398163Y-54449148D01*
X59396896Y-54449132D01*
X59355375Y-54467027D01*
X59350954Y-54472506D01*
X59335165Y-54523177D01*
X59333808Y-54552300D01*
X59333808Y-54621079D01*
X59911272Y-54621079D01*
X59911272Y-54449132D01*
X59869522Y-54409861D01*
X59829891Y-54372381D01*
X59792379Y-54336691D01*
X59756987Y-54302792D01*
X59707871Y-54255300D01*
X59663524Y-54211837D01*
X59623945Y-54172402D01*
X59589135Y-54136995D01*
X59550137Y-54096053D01*
X59513311Y-54054946D01*
X59497573Y-54035653D01*
X59470701Y-53989845D01*
X59461743Y-53946455D01*
X59473158Y-53893993D01*
X59502190Y-53853497D01*
X59542755Y-53825764D01*
X59585764Y-53814354D01*
X59610120Y-53812928D01*
X59654117Y-53818801D01*
X59695951Y-53838605D01*
X59723107Y-53862631D01*
X59750002Y-53908533D01*
X59760916Y-53941351D01*
X59784656Y-53988099D01*
X59822026Y-54002069D01*
X59863262Y-53983314D01*
X59866869Y-53979233D01*
X59885699Y-53929062D01*
X59885773Y-53925231D01*
X59876095Y-53869896D01*
X59855634Y-53818782D01*
X59851481Y-53810241D01*
X59824191Y-53766041D01*
X59789473Y-53728381D01*
X59751464Y-53699819D01*
X59709132Y-53677859D01*
X59664567Y-53664032D01*
X59617769Y-53658338D01*
X59608142Y-53658175D01*
X59557791Y-53662367D01*
X59511563Y-53674940D01*
X59469458Y-53695895D01*
X59431477Y-53725233D01*
X59411624Y-53745761D01*
X59381732Y-53785736D01*
X59356559Y-53835767D01*
X59340976Y-53890432D01*
X59334983Y-53949732D01*
X59334908Y-53957471D01*
X59339115Y-54011151D01*
X59352961Y-54064670D01*
X59356889Y-54074878D01*
X59382000Y-54120178D01*
X59412153Y-54160451D01*
X59447101Y-54200780D01*
X59462183Y-54217003D01*
X59496870Y-54252717D01*
X59536046Y-54291720D01*
X59575351Y-54330139D01*
X59611154Y-54364747D01*
X59650832Y-54402797D01*
X59694383Y-54444289D01*
X59717612Y-54466326D01*
G37*
D14*
X70384024Y-55983489D02*
X70905737Y-55679857D01*
X70829409Y-56240632D02*
X71379409Y-55288004D01*
X71379409Y-55288004D02*
X71082486Y-55116575D01*
X71082486Y-55116575D02*
X70982065Y-55119082D01*
X70982065Y-55119082D02*
X70918759Y-55143016D01*
X70918759Y-55143016D02*
X70829263Y-55212314D01*
X70829263Y-55212314D02*
X70750691Y-55348404D01*
X70750691Y-55348404D02*
X70735426Y-55460559D01*
X70735426Y-55460559D02*
X70746350Y-55527351D01*
X70746350Y-55527351D02*
X70794391Y-55615571D01*
X70794391Y-55615571D02*
X71091314Y-55787000D01*
X70252926Y-55181987D02*
X70353347Y-55179481D01*
X70353347Y-55179481D02*
X70416653Y-55155547D01*
X70416653Y-55155547D02*
X70506149Y-55086249D01*
X70506149Y-55086249D02*
X70532340Y-55040886D01*
X70532340Y-55040886D02*
X70547605Y-54928731D01*
X70547605Y-54928731D02*
X70536680Y-54861939D01*
X70536680Y-54861939D02*
X70488640Y-54773718D01*
X70488640Y-54773718D02*
X70340178Y-54688004D01*
X70340178Y-54688004D02*
X70239757Y-54690510D01*
X70239757Y-54690510D02*
X70176451Y-54714445D01*
X70176451Y-54714445D02*
X70086955Y-54783743D01*
X70086955Y-54783743D02*
X70060765Y-54829106D01*
X70060765Y-54829106D02*
X70045499Y-54941261D01*
X70045499Y-54941261D02*
X70056424Y-55008053D01*
X70056424Y-55008053D02*
X70104464Y-55096273D01*
X70104464Y-55096273D02*
X70252926Y-55181987D01*
X70252926Y-55181987D02*
X70300966Y-55270208D01*
X70300966Y-55270208D02*
X70311891Y-55337000D01*
X70311891Y-55337000D02*
X70296625Y-55449155D01*
X70296625Y-55449155D02*
X70191863Y-55630608D01*
X70191863Y-55630608D02*
X70102367Y-55699906D01*
X70102367Y-55699906D02*
X70039061Y-55723840D01*
X70039061Y-55723840D02*
X69938640Y-55726346D01*
X69938640Y-55726346D02*
X69790178Y-55640632D01*
X69790178Y-55640632D02*
X69742138Y-55552412D01*
X69742138Y-55552412D02*
X69731213Y-55485620D01*
X69731213Y-55485620D02*
X69746479Y-55373465D01*
X69746479Y-55373465D02*
X69851241Y-55192012D01*
X69851241Y-55192012D02*
X69940737Y-55122714D01*
X69940737Y-55122714D02*
X70004043Y-55098779D01*
X70004043Y-55098779D02*
X70104464Y-55096273D01*
D15*
X68184473Y-59988135D02*
X68390187Y-59631828D01*
X68287330Y-59809981D02*
X67663792Y-59449981D01*
X67663792Y-59449981D02*
X67787154Y-59442025D01*
X67787154Y-59442025D02*
X67880825Y-59416927D01*
X67880825Y-59416927D02*
X67944803Y-59374685D01*
X67338078Y-60014135D02*
X67303792Y-60073520D01*
X67303792Y-60073520D02*
X67299198Y-60150047D01*
X67299198Y-60150047D02*
X67311748Y-60196882D01*
X67311748Y-60196882D02*
X67353990Y-60260860D01*
X67353990Y-60260860D02*
X67455616Y-60359124D01*
X67455616Y-60359124D02*
X67604077Y-60444838D01*
X67604077Y-60444838D02*
X67739990Y-60483717D01*
X67739990Y-60483717D02*
X67816517Y-60488311D01*
X67816517Y-60488311D02*
X67863352Y-60475761D01*
X67863352Y-60475761D02*
X67927330Y-60433520D01*
X67927330Y-60433520D02*
X67961616Y-60374135D01*
X67961616Y-60374135D02*
X67966209Y-60297607D01*
X67966209Y-60297607D02*
X67953660Y-60250772D01*
X67953660Y-60250772D02*
X67911418Y-60186794D01*
X67911418Y-60186794D02*
X67809792Y-60088531D01*
X67809792Y-60088531D02*
X67661330Y-60002816D01*
X67661330Y-60002816D02*
X67525418Y-59963937D01*
X67525418Y-59963937D02*
X67448891Y-59959344D01*
X67448891Y-59959344D02*
X67402056Y-59971893D01*
X67402056Y-59971893D02*
X67338078Y-60014135D01*
X67687330Y-60849211D02*
X67063792Y-60489211D01*
X67481616Y-61205519D02*
X67279594Y-60732574D01*
X66858078Y-60845519D02*
X67420100Y-60694926D01*
D14*
X52714285Y-26399751D02*
X52238095Y-26399751D01*
X52809523Y-26685466D02*
X52476190Y-25685466D01*
X52476190Y-25685466D02*
X52142857Y-26685466D01*
X51285714Y-26685466D02*
X51857142Y-26685466D01*
X51571428Y-26685466D02*
X51571428Y-25685466D01*
X51571428Y-25685466D02*
X51666666Y-25828323D01*
X51666666Y-25828323D02*
X51761904Y-25923561D01*
X51761904Y-25923561D02*
X51857142Y-25971180D01*
X50498409Y-26634748D02*
X50498409Y-25634748D01*
X50498409Y-25634748D02*
X49926981Y-26634748D01*
X49926981Y-26634748D02*
X49926981Y-25634748D01*
X49498409Y-26349033D02*
X49022219Y-26349033D01*
X49593647Y-26634748D02*
X49260314Y-25634748D01*
X49260314Y-25634748D02*
X48926981Y-26634748D01*
X48593647Y-26634748D02*
X48593647Y-25634748D01*
X48593647Y-25634748D02*
X48022219Y-26634748D01*
X48022219Y-26634748D02*
X48022219Y-25634748D01*
X47355552Y-25634748D02*
X47165076Y-25634748D01*
X47165076Y-25634748D02*
X47069838Y-25682367D01*
X47069838Y-25682367D02*
X46974600Y-25777605D01*
X46974600Y-25777605D02*
X46926981Y-25968081D01*
X46926981Y-25968081D02*
X46926981Y-26301414D01*
X46926981Y-26301414D02*
X46974600Y-26491890D01*
X46974600Y-26491890D02*
X47069838Y-26587129D01*
X47069838Y-26587129D02*
X47165076Y-26634748D01*
X47165076Y-26634748D02*
X47355552Y-26634748D01*
X47355552Y-26634748D02*
X47450790Y-26587129D01*
X47450790Y-26587129D02*
X47546028Y-26491890D01*
X47546028Y-26491890D02*
X47593647Y-26301414D01*
X47593647Y-26301414D02*
X47593647Y-25968081D01*
X47593647Y-25968081D02*
X47546028Y-25777605D01*
X47546028Y-25777605D02*
X47450790Y-25682367D01*
X47450790Y-25682367D02*
X47355552Y-25634748D01*
X72177678Y-57127717D02*
X72699391Y-56824085D01*
X72623063Y-57384860D02*
X73173063Y-56432232D01*
X73173063Y-56432232D02*
X72876140Y-56260803D01*
X72876140Y-56260803D02*
X72775719Y-56263310D01*
X72775719Y-56263310D02*
X72712413Y-56287244D01*
X72712413Y-56287244D02*
X72622917Y-56356542D01*
X72622917Y-56356542D02*
X72544345Y-56492632D01*
X72544345Y-56492632D02*
X72529080Y-56604787D01*
X72529080Y-56604787D02*
X72540004Y-56671579D01*
X72540004Y-56671579D02*
X72588045Y-56759799D01*
X72588045Y-56759799D02*
X72884968Y-56931228D01*
X72467871Y-56025089D02*
X71948256Y-55725089D01*
X71948256Y-55725089D02*
X71732294Y-56870574D01*
D15*
X69975036Y-61452319D02*
X70180751Y-61096012D01*
X70077894Y-61274165D02*
X69454355Y-60914165D01*
X69454355Y-60914165D02*
X69577718Y-60906209D01*
X69577718Y-60906209D02*
X69671388Y-60881110D01*
X69671388Y-60881110D02*
X69735366Y-60838869D01*
X69820751Y-61719550D02*
X69197213Y-61359550D01*
X69615037Y-62075857D02*
X69413015Y-61602912D01*
X68991498Y-61715857D02*
X69553520Y-61565264D01*
D14*
X60698654Y-40998467D02*
X61031987Y-40522276D01*
X61270082Y-40998467D02*
X61270082Y-39998467D01*
X61270082Y-39998467D02*
X60889130Y-39998467D01*
X60889130Y-39998467D02*
X60793892Y-40046086D01*
X60793892Y-40046086D02*
X60746273Y-40093705D01*
X60746273Y-40093705D02*
X60698654Y-40188943D01*
X60698654Y-40188943D02*
X60698654Y-40331800D01*
X60698654Y-40331800D02*
X60746273Y-40427038D01*
X60746273Y-40427038D02*
X60793892Y-40474657D01*
X60793892Y-40474657D02*
X60889130Y-40522276D01*
X60889130Y-40522276D02*
X61270082Y-40522276D01*
X59793892Y-39998467D02*
X60270082Y-39998467D01*
X60270082Y-39998467D02*
X60317701Y-40474657D01*
X60317701Y-40474657D02*
X60270082Y-40427038D01*
X60270082Y-40427038D02*
X60174844Y-40379419D01*
X60174844Y-40379419D02*
X59936749Y-40379419D01*
X59936749Y-40379419D02*
X59841511Y-40427038D01*
X59841511Y-40427038D02*
X59793892Y-40474657D01*
X59793892Y-40474657D02*
X59746273Y-40569895D01*
X59746273Y-40569895D02*
X59746273Y-40807990D01*
X59746273Y-40807990D02*
X59793892Y-40903228D01*
X59793892Y-40903228D02*
X59841511Y-40950848D01*
X59841511Y-40950848D02*
X59936749Y-40998467D01*
X59936749Y-40998467D02*
X60174844Y-40998467D01*
X60174844Y-40998467D02*
X60270082Y-40950848D01*
X60270082Y-40950848D02*
X60317701Y-40903228D01*
D15*
X60347469Y-45434286D02*
X60827469Y-45434286D01*
X60073184Y-45262857D02*
X60587469Y-45091428D01*
X60587469Y-45091428D02*
X60587469Y-45537143D01*
X60107469Y-45742857D02*
X60107469Y-46222857D01*
X60107469Y-46222857D02*
X60827469Y-45914285D01*
X60827469Y-46497142D02*
X60107469Y-46497142D01*
X60827469Y-46908571D02*
X60416041Y-46599999D01*
X60107469Y-46908571D02*
X60518898Y-46497142D01*
D14*
X25954819Y-46166666D02*
X26669104Y-46166666D01*
X26669104Y-46166666D02*
X26811961Y-46119047D01*
X26811961Y-46119047D02*
X26907200Y-46023809D01*
X26907200Y-46023809D02*
X26954819Y-45880952D01*
X26954819Y-45880952D02*
X26954819Y-45785714D01*
X26288152Y-47071428D02*
X26954819Y-47071428D01*
X25907200Y-46833333D02*
X26621485Y-46595238D01*
X26621485Y-46595238D02*
X26621485Y-47214285D01*
X26954819Y-48047619D02*
X26954819Y-48238095D01*
X26954819Y-48238095D02*
X26907200Y-48333333D01*
X26907200Y-48333333D02*
X26859580Y-48380952D01*
X26859580Y-48380952D02*
X26716723Y-48476190D01*
X26716723Y-48476190D02*
X26526247Y-48523809D01*
X26526247Y-48523809D02*
X26145295Y-48523809D01*
X26145295Y-48523809D02*
X26050057Y-48476190D01*
X26050057Y-48476190D02*
X26002438Y-48428571D01*
X26002438Y-48428571D02*
X25954819Y-48333333D01*
X25954819Y-48333333D02*
X25954819Y-48142857D01*
X25954819Y-48142857D02*
X26002438Y-48047619D01*
X26002438Y-48047619D02*
X26050057Y-48000000D01*
X26050057Y-48000000D02*
X26145295Y-47952381D01*
X26145295Y-47952381D02*
X26383390Y-47952381D01*
X26383390Y-47952381D02*
X26478628Y-48000000D01*
X26478628Y-48000000D02*
X26526247Y-48047619D01*
X26526247Y-48047619D02*
X26573866Y-48142857D01*
X26573866Y-48142857D02*
X26573866Y-48333333D01*
X26573866Y-48333333D02*
X26526247Y-48428571D01*
X26526247Y-48428571D02*
X26478628Y-48476190D01*
X26478628Y-48476190D02*
X26383390Y-48523809D01*
X25954819Y-48809524D02*
X26954819Y-49142857D01*
X26954819Y-49142857D02*
X25954819Y-49476190D01*
X26954819Y-51142857D02*
X26478628Y-50809524D01*
X26954819Y-50571429D02*
X25954819Y-50571429D01*
X25954819Y-50571429D02*
X25954819Y-50952381D01*
X25954819Y-50952381D02*
X26002438Y-51047619D01*
X26002438Y-51047619D02*
X26050057Y-51095238D01*
X26050057Y-51095238D02*
X26145295Y-51142857D01*
X26145295Y-51142857D02*
X26288152Y-51142857D01*
X26288152Y-51142857D02*
X26383390Y-51095238D01*
X26383390Y-51095238D02*
X26431009Y-51047619D01*
X26431009Y-51047619D02*
X26478628Y-50952381D01*
X26478628Y-50952381D02*
X26478628Y-50571429D01*
X26431009Y-51571429D02*
X26431009Y-51904762D01*
X26954819Y-52047619D02*
X26954819Y-51571429D01*
X26954819Y-51571429D02*
X25954819Y-51571429D01*
X25954819Y-51571429D02*
X25954819Y-52047619D01*
X26002438Y-53000000D02*
X25954819Y-52904762D01*
X25954819Y-52904762D02*
X25954819Y-52761905D01*
X25954819Y-52761905D02*
X26002438Y-52619048D01*
X26002438Y-52619048D02*
X26097676Y-52523810D01*
X26097676Y-52523810D02*
X26192914Y-52476191D01*
X26192914Y-52476191D02*
X26383390Y-52428572D01*
X26383390Y-52428572D02*
X26526247Y-52428572D01*
X26526247Y-52428572D02*
X26716723Y-52476191D01*
X26716723Y-52476191D02*
X26811961Y-52523810D01*
X26811961Y-52523810D02*
X26907200Y-52619048D01*
X26907200Y-52619048D02*
X26954819Y-52761905D01*
X26954819Y-52761905D02*
X26954819Y-52857143D01*
X26954819Y-52857143D02*
X26907200Y-53000000D01*
X26907200Y-53000000D02*
X26859580Y-53047619D01*
X26859580Y-53047619D02*
X26526247Y-53047619D01*
X26526247Y-53047619D02*
X26526247Y-52857143D01*
X34666666Y-36859580D02*
X34714285Y-36907200D01*
X34714285Y-36907200D02*
X34857142Y-36954819D01*
X34857142Y-36954819D02*
X34952380Y-36954819D01*
X34952380Y-36954819D02*
X35095237Y-36907200D01*
X35095237Y-36907200D02*
X35190475Y-36811961D01*
X35190475Y-36811961D02*
X35238094Y-36716723D01*
X35238094Y-36716723D02*
X35285713Y-36526247D01*
X35285713Y-36526247D02*
X35285713Y-36383390D01*
X35285713Y-36383390D02*
X35238094Y-36192914D01*
X35238094Y-36192914D02*
X35190475Y-36097676D01*
X35190475Y-36097676D02*
X35095237Y-36002438D01*
X35095237Y-36002438D02*
X34952380Y-35954819D01*
X34952380Y-35954819D02*
X34857142Y-35954819D01*
X34857142Y-35954819D02*
X34714285Y-36002438D01*
X34714285Y-36002438D02*
X34666666Y-36050057D01*
X33714285Y-36954819D02*
X34285713Y-36954819D01*
X33999999Y-36954819D02*
X33999999Y-35954819D01*
X33999999Y-35954819D02*
X34095237Y-36097676D01*
X34095237Y-36097676D02*
X34190475Y-36192914D01*
X34190475Y-36192914D02*
X34285713Y-36240533D01*
X35217941Y-33217911D02*
X35789369Y-33217911D01*
X35503655Y-33217911D02*
X35503655Y-32217911D01*
X35503655Y-32217911D02*
X35598893Y-32360768D01*
X35598893Y-32360768D02*
X35694131Y-32456006D01*
X35694131Y-32456006D02*
X35789369Y-32503625D01*
X34598893Y-32217911D02*
X34503655Y-32217911D01*
X34503655Y-32217911D02*
X34408417Y-32265530D01*
X34408417Y-32265530D02*
X34360798Y-32313149D01*
X34360798Y-32313149D02*
X34313179Y-32408387D01*
X34313179Y-32408387D02*
X34265560Y-32598863D01*
X34265560Y-32598863D02*
X34265560Y-32836958D01*
X34265560Y-32836958D02*
X34313179Y-33027434D01*
X34313179Y-33027434D02*
X34360798Y-33122672D01*
X34360798Y-33122672D02*
X34408417Y-33170292D01*
X34408417Y-33170292D02*
X34503655Y-33217911D01*
X34503655Y-33217911D02*
X34598893Y-33217911D01*
X34598893Y-33217911D02*
X34694131Y-33170292D01*
X34694131Y-33170292D02*
X34741750Y-33122672D01*
X34741750Y-33122672D02*
X34789369Y-33027434D01*
X34789369Y-33027434D02*
X34836988Y-32836958D01*
X34836988Y-32836958D02*
X34836988Y-32598863D01*
X34836988Y-32598863D02*
X34789369Y-32408387D01*
X34789369Y-32408387D02*
X34741750Y-32313149D01*
X34741750Y-32313149D02*
X34694131Y-32265530D01*
X34694131Y-32265530D02*
X34598893Y-32217911D01*
X33836988Y-33217911D02*
X33836988Y-32217911D01*
X33741750Y-32836958D02*
X33456036Y-33217911D01*
X33456036Y-32551244D02*
X33836988Y-32932196D01*
X67787412Y-33122292D02*
X67292174Y-33122292D01*
X67292174Y-33122292D02*
X67558840Y-33503244D01*
X67558840Y-33503244D02*
X67444555Y-33503244D01*
X67444555Y-33503244D02*
X67368364Y-33550863D01*
X67368364Y-33550863D02*
X67330269Y-33598482D01*
X67330269Y-33598482D02*
X67292174Y-33693720D01*
X67292174Y-33693720D02*
X67292174Y-33931815D01*
X67292174Y-33931815D02*
X67330269Y-34027053D01*
X67330269Y-34027053D02*
X67368364Y-34074673D01*
X67368364Y-34074673D02*
X67444555Y-34122292D01*
X67444555Y-34122292D02*
X67673126Y-34122292D01*
X67673126Y-34122292D02*
X67749317Y-34074673D01*
X67749317Y-34074673D02*
X67787412Y-34027053D01*
X66911221Y-34122292D02*
X66758840Y-34122292D01*
X66758840Y-34122292D02*
X66682650Y-34074673D01*
X66682650Y-34074673D02*
X66644554Y-34027053D01*
X66644554Y-34027053D02*
X66568364Y-33884196D01*
X66568364Y-33884196D02*
X66530269Y-33693720D01*
X66530269Y-33693720D02*
X66530269Y-33312768D01*
X66530269Y-33312768D02*
X66568364Y-33217530D01*
X66568364Y-33217530D02*
X66606459Y-33169911D01*
X66606459Y-33169911D02*
X66682650Y-33122292D01*
X66682650Y-33122292D02*
X66835031Y-33122292D01*
X66835031Y-33122292D02*
X66911221Y-33169911D01*
X66911221Y-33169911D02*
X66949316Y-33217530D01*
X66949316Y-33217530D02*
X66987412Y-33312768D01*
X66987412Y-33312768D02*
X66987412Y-33550863D01*
X66987412Y-33550863D02*
X66949316Y-33646101D01*
X66949316Y-33646101D02*
X66911221Y-33693720D01*
X66911221Y-33693720D02*
X66835031Y-33741339D01*
X66835031Y-33741339D02*
X66682650Y-33741339D01*
X66682650Y-33741339D02*
X66606459Y-33693720D01*
X66606459Y-33693720D02*
X66568364Y-33646101D01*
X66568364Y-33646101D02*
X66530269Y-33550863D01*
X66035030Y-33122292D02*
X65958840Y-33122292D01*
X65958840Y-33122292D02*
X65882649Y-33169911D01*
X65882649Y-33169911D02*
X65844554Y-33217530D01*
X65844554Y-33217530D02*
X65806459Y-33312768D01*
X65806459Y-33312768D02*
X65768364Y-33503244D01*
X65768364Y-33503244D02*
X65768364Y-33741339D01*
X65768364Y-33741339D02*
X65806459Y-33931815D01*
X65806459Y-33931815D02*
X65844554Y-34027053D01*
X65844554Y-34027053D02*
X65882649Y-34074673D01*
X65882649Y-34074673D02*
X65958840Y-34122292D01*
X65958840Y-34122292D02*
X66035030Y-34122292D01*
X66035030Y-34122292D02*
X66111221Y-34074673D01*
X66111221Y-34074673D02*
X66149316Y-34027053D01*
X66149316Y-34027053D02*
X66187411Y-33931815D01*
X66187411Y-33931815D02*
X66225507Y-33741339D01*
X66225507Y-33741339D02*
X66225507Y-33503244D01*
X66225507Y-33503244D02*
X66187411Y-33312768D01*
X66187411Y-33312768D02*
X66149316Y-33217530D01*
X66149316Y-33217530D02*
X66111221Y-33169911D01*
X66111221Y-33169911D02*
X66035030Y-33122292D01*
X65082649Y-33122292D02*
X65235030Y-33122292D01*
X65235030Y-33122292D02*
X65311221Y-33169911D01*
X65311221Y-33169911D02*
X65349316Y-33217530D01*
X65349316Y-33217530D02*
X65425506Y-33360387D01*
X65425506Y-33360387D02*
X65463602Y-33550863D01*
X65463602Y-33550863D02*
X65463602Y-33931815D01*
X65463602Y-33931815D02*
X65425506Y-34027053D01*
X65425506Y-34027053D02*
X65387411Y-34074673D01*
X65387411Y-34074673D02*
X65311221Y-34122292D01*
X65311221Y-34122292D02*
X65158840Y-34122292D01*
X65158840Y-34122292D02*
X65082649Y-34074673D01*
X65082649Y-34074673D02*
X65044554Y-34027053D01*
X65044554Y-34027053D02*
X65006459Y-33931815D01*
X65006459Y-33931815D02*
X65006459Y-33693720D01*
X65006459Y-33693720D02*
X65044554Y-33598482D01*
X65044554Y-33598482D02*
X65082649Y-33550863D01*
X65082649Y-33550863D02*
X65158840Y-33503244D01*
X65158840Y-33503244D02*
X65311221Y-33503244D01*
X65311221Y-33503244D02*
X65387411Y-33550863D01*
X65387411Y-33550863D02*
X65425506Y-33598482D01*
X65425506Y-33598482D02*
X65463602Y-33693720D01*
X63214097Y-40998467D02*
X63547430Y-40522276D01*
X63785525Y-40998467D02*
X63785525Y-39998467D01*
X63785525Y-39998467D02*
X63404573Y-39998467D01*
X63404573Y-39998467D02*
X63309335Y-40046086D01*
X63309335Y-40046086D02*
X63261716Y-40093705D01*
X63261716Y-40093705D02*
X63214097Y-40188943D01*
X63214097Y-40188943D02*
X63214097Y-40331800D01*
X63214097Y-40331800D02*
X63261716Y-40427038D01*
X63261716Y-40427038D02*
X63309335Y-40474657D01*
X63309335Y-40474657D02*
X63404573Y-40522276D01*
X63404573Y-40522276D02*
X63785525Y-40522276D01*
X62356954Y-39998467D02*
X62547430Y-39998467D01*
X62547430Y-39998467D02*
X62642668Y-40046086D01*
X62642668Y-40046086D02*
X62690287Y-40093705D01*
X62690287Y-40093705D02*
X62785525Y-40236562D01*
X62785525Y-40236562D02*
X62833144Y-40427038D01*
X62833144Y-40427038D02*
X62833144Y-40807990D01*
X62833144Y-40807990D02*
X62785525Y-40903228D01*
X62785525Y-40903228D02*
X62737906Y-40950848D01*
X62737906Y-40950848D02*
X62642668Y-40998467D01*
X62642668Y-40998467D02*
X62452192Y-40998467D01*
X62452192Y-40998467D02*
X62356954Y-40950848D01*
X62356954Y-40950848D02*
X62309335Y-40903228D01*
X62309335Y-40903228D02*
X62261716Y-40807990D01*
X62261716Y-40807990D02*
X62261716Y-40569895D01*
X62261716Y-40569895D02*
X62309335Y-40474657D01*
X62309335Y-40474657D02*
X62356954Y-40427038D01*
X62356954Y-40427038D02*
X62452192Y-40379419D01*
X62452192Y-40379419D02*
X62642668Y-40379419D01*
X62642668Y-40379419D02*
X62737906Y-40427038D01*
X62737906Y-40427038D02*
X62785525Y-40474657D01*
X62785525Y-40474657D02*
X62833144Y-40569895D01*
D15*
X63327469Y-45502857D02*
X63327469Y-45091428D01*
X63327469Y-45297143D02*
X62607469Y-45297143D01*
X62607469Y-45297143D02*
X62710326Y-45228571D01*
X62710326Y-45228571D02*
X62778898Y-45160000D01*
X62778898Y-45160000D02*
X62813184Y-45091428D01*
X62607469Y-45948571D02*
X62607469Y-46017142D01*
X62607469Y-46017142D02*
X62641755Y-46085714D01*
X62641755Y-46085714D02*
X62676041Y-46120000D01*
X62676041Y-46120000D02*
X62744612Y-46154285D01*
X62744612Y-46154285D02*
X62881755Y-46188571D01*
X62881755Y-46188571D02*
X63053184Y-46188571D01*
X63053184Y-46188571D02*
X63190326Y-46154285D01*
X63190326Y-46154285D02*
X63258898Y-46120000D01*
X63258898Y-46120000D02*
X63293184Y-46085714D01*
X63293184Y-46085714D02*
X63327469Y-46017142D01*
X63327469Y-46017142D02*
X63327469Y-45948571D01*
X63327469Y-45948571D02*
X63293184Y-45880000D01*
X63293184Y-45880000D02*
X63258898Y-45845714D01*
X63258898Y-45845714D02*
X63190326Y-45811428D01*
X63190326Y-45811428D02*
X63053184Y-45777142D01*
X63053184Y-45777142D02*
X62881755Y-45777142D01*
X62881755Y-45777142D02*
X62744612Y-45811428D01*
X62744612Y-45811428D02*
X62676041Y-45845714D01*
X62676041Y-45845714D02*
X62641755Y-45880000D01*
X62641755Y-45880000D02*
X62607469Y-45948571D01*
X63327469Y-46497142D02*
X62607469Y-46497142D01*
X63327469Y-46908571D02*
X62916041Y-46599999D01*
X62607469Y-46908571D02*
X63018898Y-46497142D01*
D16*
%TO.C,R8*%
X69409048Y-59052170D02*
X67815562Y-58132169D01*
X68612305Y-58592170D02*
X69087305Y-57769445D01*
X67815562Y-58132169D02*
X65895562Y-61457708D01*
X67489049Y-62377707D02*
X69409048Y-59052170D01*
X66692306Y-61917707D02*
X66217304Y-62740432D01*
X65895562Y-61457708D02*
X67489049Y-62377707D01*
%TO.C,A1*%
X40777895Y-27060000D02*
X40777895Y-70500000D01*
X40777895Y-29730000D02*
X43447895Y-29730000D01*
X40777895Y-67830000D02*
X43447895Y-67830000D01*
X43447895Y-67830000D02*
X43447895Y-29730000D01*
X45857895Y-62620000D02*
X53737895Y-62620000D01*
X45857895Y-70500000D02*
X40777895Y-70500000D01*
X45857895Y-73040000D02*
X45857895Y-62620000D01*
X53737895Y-62620000D02*
X53737895Y-73040000D01*
X53737895Y-70500000D02*
X58817895Y-70500000D01*
X53737895Y-73040000D02*
X45857895Y-73040000D01*
X56147895Y-29730000D02*
X56147895Y-32270000D01*
X56147895Y-67830000D02*
X56147895Y-32270000D01*
X58817895Y-27060000D02*
X40777895Y-27060000D01*
X58817895Y-29730000D02*
X56147895Y-29730000D01*
X58817895Y-29730000D02*
X58817895Y-27060000D01*
X58817895Y-32270000D02*
X56147895Y-32270000D01*
X58817895Y-67830000D02*
X56147895Y-67830000D01*
X58817895Y-70500000D02*
X58817895Y-32270000D01*
%TO.C,R7*%
X69777554Y-59299430D02*
X67857555Y-62624969D01*
X67857555Y-62624969D02*
X69451041Y-63544968D01*
X70574297Y-59759431D02*
X71049297Y-58936706D01*
X68654298Y-63084968D02*
X68179296Y-63907693D01*
X71371040Y-60219431D02*
X69777554Y-59299430D01*
X69451041Y-63544968D02*
X71371040Y-60219431D01*
%TO.C,R5*%
X59580000Y-44080000D02*
X59580000Y-47920000D01*
X59580000Y-47920000D02*
X61420000Y-47920000D01*
X60500000Y-44080000D02*
X60500000Y-43130000D01*
X60500000Y-47920000D02*
X60500000Y-48870000D01*
X61420000Y-44080000D02*
X59580000Y-44080000D01*
X61420000Y-47920000D02*
X61420000Y-44080000D01*
%TO.C,J4*%
X28350000Y-56670000D02*
X28350000Y-59330000D01*
X28350000Y-56670000D02*
X36030000Y-56670000D01*
X28350000Y-59330000D02*
X36030000Y-59330000D01*
X36030000Y-56670000D02*
X36030000Y-59330000D01*
X38630000Y-58000000D02*
X38630000Y-59330000D01*
X38630000Y-59330000D02*
X37300000Y-59330000D01*
%TO.C,C1*%
X32317548Y-36454399D02*
X32317548Y-37254399D01*
X32717548Y-36854399D02*
X31917548Y-36854399D01*
X36327246Y-30459399D02*
X36327246Y-38619399D01*
X36367246Y-30459399D02*
X36367246Y-38619399D01*
X36407246Y-30459399D02*
X36407246Y-38619399D01*
X36447246Y-30460399D02*
X36447246Y-38618399D01*
X36487246Y-30462399D02*
X36487246Y-38616399D01*
X36527246Y-30463399D02*
X36527246Y-38615399D01*
X36567246Y-30465399D02*
X36567246Y-38613399D01*
X36607246Y-30468399D02*
X36607246Y-38610399D01*
X36647246Y-30471399D02*
X36647246Y-38607399D01*
X36687246Y-30474399D02*
X36687246Y-38604399D01*
X36727246Y-30478399D02*
X36727246Y-38600399D01*
X36767246Y-30482399D02*
X36767246Y-38596399D01*
X36807246Y-30487399D02*
X36807246Y-38591399D01*
X36847246Y-30491399D02*
X36847246Y-38587399D01*
X36887246Y-30497399D02*
X36887246Y-38581399D01*
X36927246Y-30502399D02*
X36927246Y-38576399D01*
X36967246Y-30509399D02*
X36967246Y-38569399D01*
X37007246Y-30515399D02*
X37007246Y-38563399D01*
X37048246Y-30522399D02*
X37048246Y-38556399D01*
X37088246Y-30529399D02*
X37088246Y-38549399D01*
X37128246Y-30537399D02*
X37128246Y-38541399D01*
X37168246Y-30545399D02*
X37168246Y-38533399D01*
X37208246Y-30554399D02*
X37208246Y-38524399D01*
X37248246Y-30563399D02*
X37248246Y-38515399D01*
X37288246Y-30572399D02*
X37288246Y-38506399D01*
X37328246Y-30582399D02*
X37328246Y-38496399D01*
X37368246Y-30592399D02*
X37368246Y-38486399D01*
X37408246Y-30603399D02*
X37408246Y-38475399D01*
X37448246Y-30614399D02*
X37448246Y-38464399D01*
X37488246Y-30625399D02*
X37488246Y-38453399D01*
X37528246Y-30637399D02*
X37528246Y-38441399D01*
X37568246Y-30650399D02*
X37568246Y-38428399D01*
X37608246Y-30662399D02*
X37608246Y-38416399D01*
X37648246Y-30676399D02*
X37648246Y-38402399D01*
X37688246Y-30689399D02*
X37688246Y-38389399D01*
X37728246Y-30704399D02*
X37728246Y-38374399D01*
X37768246Y-30718399D02*
X37768246Y-38360399D01*
X37808246Y-30734399D02*
X37808246Y-33499399D01*
X37808246Y-35579399D02*
X37808246Y-38344399D01*
X37848246Y-30749399D02*
X37848246Y-33499399D01*
X37848246Y-35579399D02*
X37848246Y-38329399D01*
X37888246Y-30765399D02*
X37888246Y-33499399D01*
X37888246Y-35579399D02*
X37888246Y-38313399D01*
X37928246Y-30782399D02*
X37928246Y-33499399D01*
X37928246Y-35579399D02*
X37928246Y-38296399D01*
X37968246Y-30799399D02*
X37968246Y-33499399D01*
X37968246Y-35579399D02*
X37968246Y-38279399D01*
X38008246Y-30817399D02*
X38008246Y-33499399D01*
X38008246Y-35579399D02*
X38008246Y-38261399D01*
X38048246Y-30835399D02*
X38048246Y-33499399D01*
X38048246Y-35579399D02*
X38048246Y-38243399D01*
X38088246Y-30853399D02*
X38088246Y-33499399D01*
X38088246Y-35579399D02*
X38088246Y-38225399D01*
X38128246Y-30873399D02*
X38128246Y-33499399D01*
X38128246Y-35579399D02*
X38128246Y-38205399D01*
X38168246Y-30892399D02*
X38168246Y-33499399D01*
X38168246Y-35579399D02*
X38168246Y-38186399D01*
X38208246Y-30912399D02*
X38208246Y-33499399D01*
X38208246Y-35579399D02*
X38208246Y-38166399D01*
X38248246Y-30933399D02*
X38248246Y-33499399D01*
X38248246Y-35579399D02*
X38248246Y-38145399D01*
X38288246Y-30955399D02*
X38288246Y-33499399D01*
X38288246Y-35579399D02*
X38288246Y-38123399D01*
X38328246Y-30977399D02*
X38328246Y-33499399D01*
X38328246Y-35579399D02*
X38328246Y-38101399D01*
X38368246Y-30999399D02*
X38368246Y-33499399D01*
X38368246Y-35579399D02*
X38368246Y-38079399D01*
X38408246Y-31022399D02*
X38408246Y-33499399D01*
X38408246Y-35579399D02*
X38408246Y-38056399D01*
X38448246Y-31046399D02*
X38448246Y-33499399D01*
X38448246Y-35579399D02*
X38448246Y-38032399D01*
X38488246Y-31070399D02*
X38488246Y-33499399D01*
X38488246Y-35579399D02*
X38488246Y-38008399D01*
X38528246Y-31095399D02*
X38528246Y-33499399D01*
X38528246Y-35579399D02*
X38528246Y-37983399D01*
X38568246Y-31121399D02*
X38568246Y-33499399D01*
X38568246Y-35579399D02*
X38568246Y-37957399D01*
X38608246Y-31147399D02*
X38608246Y-33499399D01*
X38608246Y-35579399D02*
X38608246Y-37931399D01*
X38648246Y-31174399D02*
X38648246Y-33499399D01*
X38648246Y-35579399D02*
X38648246Y-37904399D01*
X38688246Y-31201399D02*
X38688246Y-33499399D01*
X38688246Y-35579399D02*
X38688246Y-37877399D01*
X38728246Y-31230399D02*
X38728246Y-33499399D01*
X38728246Y-35579399D02*
X38728246Y-37848399D01*
X38768246Y-31259399D02*
X38768246Y-33499399D01*
X38768246Y-35579399D02*
X38768246Y-37819399D01*
X38808246Y-31289399D02*
X38808246Y-33499399D01*
X38808246Y-35579399D02*
X38808246Y-37789399D01*
X38848246Y-31319399D02*
X38848246Y-33499399D01*
X38848246Y-35579399D02*
X38848246Y-37759399D01*
X38888246Y-31350399D02*
X38888246Y-33499399D01*
X38888246Y-35579399D02*
X38888246Y-37728399D01*
X38928246Y-31383399D02*
X38928246Y-33499399D01*
X38928246Y-35579399D02*
X38928246Y-37695399D01*
X38968246Y-31415399D02*
X38968246Y-33499399D01*
X38968246Y-35579399D02*
X38968246Y-37663399D01*
X39008246Y-31449399D02*
X39008246Y-33499399D01*
X39008246Y-35579399D02*
X39008246Y-37629399D01*
X39048246Y-31484399D02*
X39048246Y-33499399D01*
X39048246Y-35579399D02*
X39048246Y-37594399D01*
X39088246Y-31520399D02*
X39088246Y-33499399D01*
X39088246Y-35579399D02*
X39088246Y-37558399D01*
X39128246Y-31556399D02*
X39128246Y-33499399D01*
X39128246Y-35579399D02*
X39128246Y-37522399D01*
X39168246Y-31594399D02*
X39168246Y-33499399D01*
X39168246Y-35579399D02*
X39168246Y-37484399D01*
X39208246Y-31632399D02*
X39208246Y-33499399D01*
X39208246Y-35579399D02*
X39208246Y-37446399D01*
X39248246Y-31672399D02*
X39248246Y-33499399D01*
X39248246Y-35579399D02*
X39248246Y-37406399D01*
X39288246Y-31713399D02*
X39288246Y-33499399D01*
X39288246Y-35579399D02*
X39288246Y-37365399D01*
X39328246Y-31755399D02*
X39328246Y-33499399D01*
X39328246Y-35579399D02*
X39328246Y-37323399D01*
X39368246Y-31798399D02*
X39368246Y-33499399D01*
X39368246Y-35579399D02*
X39368246Y-37280399D01*
X39408246Y-31842399D02*
X39408246Y-33499399D01*
X39408246Y-35579399D02*
X39408246Y-37236399D01*
X39448246Y-31888399D02*
X39448246Y-33499399D01*
X39448246Y-35579399D02*
X39448246Y-37190399D01*
X39488246Y-31935399D02*
X39488246Y-33499399D01*
X39488246Y-35579399D02*
X39488246Y-37143399D01*
X39528246Y-31983399D02*
X39528246Y-33499399D01*
X39528246Y-35579399D02*
X39528246Y-37095399D01*
X39568246Y-32034399D02*
X39568246Y-33499399D01*
X39568246Y-35579399D02*
X39568246Y-37044399D01*
X39608246Y-32085399D02*
X39608246Y-33499399D01*
X39608246Y-35579399D02*
X39608246Y-36993399D01*
X39648246Y-32139399D02*
X39648246Y-33499399D01*
X39648246Y-35579399D02*
X39648246Y-36939399D01*
X39688246Y-32194399D02*
X39688246Y-33499399D01*
X39688246Y-35579399D02*
X39688246Y-36884399D01*
X39728246Y-32252399D02*
X39728246Y-33499399D01*
X39728246Y-35579399D02*
X39728246Y-36826399D01*
X39768246Y-32311399D02*
X39768246Y-33499399D01*
X39768246Y-35579399D02*
X39768246Y-36767399D01*
X39808246Y-32373399D02*
X39808246Y-33499399D01*
X39808246Y-35579399D02*
X39808246Y-36705399D01*
X39848246Y-32437399D02*
X39848246Y-33499399D01*
X39848246Y-35579399D02*
X39848246Y-36641399D01*
X39888246Y-32505399D02*
X39888246Y-36573399D01*
X39928246Y-32575399D02*
X39928246Y-36503399D01*
X39968246Y-32649399D02*
X39968246Y-36429399D01*
X40008246Y-32726399D02*
X40008246Y-36352399D01*
X40048246Y-32808399D02*
X40048246Y-36270399D01*
X40088246Y-32894399D02*
X40088246Y-36184399D01*
X40128246Y-32987399D02*
X40128246Y-36091399D01*
X40168246Y-33086399D02*
X40168246Y-35992399D01*
X40208246Y-33193399D02*
X40208246Y-35885399D01*
X40248246Y-33310399D02*
X40248246Y-35768399D01*
X40288246Y-33441399D02*
X40288246Y-35637399D01*
X40328246Y-33591399D02*
X40328246Y-35487399D01*
X40368246Y-33771399D02*
X40368246Y-35307399D01*
X40408246Y-34006399D02*
X40408246Y-35072399D01*
X40447246Y-34539399D02*
G75*
G02*
X32207246Y-34539399I-4120000J0D01*
G01*
X32207246Y-34539399D02*
G75*
G02*
X40447246Y-34539399I4120000J0D01*
G01*
%TO.C,Q1*%
X60200000Y-35620000D02*
X63800000Y-35620000D01*
X60161522Y-35608478D02*
G75*
G02*
X62000000Y-31169999I1838478J1838478D01*
G01*
X62000000Y-31170000D02*
G75*
G02*
X63838478Y-35608478I0J-2600000D01*
G01*
%TO.C,R6*%
X62080000Y-44080000D02*
X62080000Y-47920000D01*
X62080000Y-47920000D02*
X63920000Y-47920000D01*
X63000000Y-44080000D02*
X63000000Y-43130000D01*
X63000000Y-47920000D02*
X63000000Y-48870000D01*
X63920000Y-44080000D02*
X62080000Y-44080000D01*
X63920000Y-47920000D02*
X63920000Y-44080000D01*
%TD*%
M02*
