M48
; DRILL file {KiCad 8.0.6} date 2025-03-02T18:01:45-0800
; FORMAT={-:-/ absolute / inch / decimal}
; #@! TF.CreationDate,2025-03-02T18:01:45-08:00
; #@! TF.GenerationSoftware,Kicad,Pcbnew,8.0.6
; #@! TF.FileFunction,Plated,1,2,PTH
FMAT,2
INCH
; #@! TA.AperFunction,Plated,PTH,ComponentDrill
T1C0.0276
; #@! TA.AperFunction,Plated,PTH,ComponentDrill
T2C0.0295
; #@! TA.AperFunction,Plated,PTH,ComponentDrill
T3C0.0315
; #@! TA.AperFunction,Plated,PTH,ComponentDrill
T4C0.0354
; #@! TA.AperFunction,Plated,PTH,ComponentDrill
T5C0.0394
; #@! TA.AperFunction,Plated,PTH,ComponentDrill
T6C0.0433
%
G90
G05
T1
X1.7871Y-2.0111
X1.7871Y-2.1009
X1.7913Y-1.2205
X1.7913Y-1.3189
X2.0871Y-2.0111
X2.0871Y-2.1009
X2.0913Y-1.2205
X2.0913Y-1.3189
X2.3819Y-1.661
X2.3819Y-1.961
X2.4803Y-1.661
X2.4803Y-1.961
X2.5885Y-2.5021
X2.6657Y-2.5481
X2.7385Y-2.2423
X2.8157Y-2.2883
T2
X2.3909Y-1.3295
X2.4409Y-1.2795
X2.4988Y-1.3295
T3
X1.1614Y-1.6102
X1.1614Y-2.1102
X1.3318Y-1.3598
X1.5286Y-1.3598
X1.8063Y-1.5157
X1.8063Y-1.6157
X1.8063Y-1.7157
X1.8063Y-1.8157
X2.1063Y-1.5157
X2.1063Y-1.6157
X2.1063Y-1.7157
X2.1063Y-1.8157
T4
X1.3976Y-2.6772
X1.7126Y-2.7756
X2.2244Y-2.8543
X2.4606Y-2.5984
X2.5606Y-2.5984
T5
X1.1685Y-2.2835
X1.2685Y-2.2835
X1.3685Y-2.2835
X1.4685Y-2.2835
X1.6605Y-1.2205
X1.6605Y-1.3205
X1.6605Y-1.4205
X1.6605Y-1.5205
X1.6605Y-1.6205
X1.6605Y-1.7205
X1.6605Y-1.8205
X1.6605Y-1.9205
X1.6605Y-2.0205
X1.6605Y-2.1205
X1.6605Y-2.2205
X1.6605Y-2.3205
X1.6605Y-2.4205
X1.6605Y-2.5205
X1.6605Y-2.6205
X2.2605Y-1.2205
X2.2605Y-1.3205
X2.2605Y-1.4205
X2.2605Y-1.5205
X2.2605Y-1.6205
X2.2605Y-1.7205
X2.2605Y-1.8205
X2.2605Y-1.9205
X2.2605Y-2.0205
X2.2605Y-2.1205
X2.2605Y-2.2205
X2.2605Y-2.3205
X2.2605Y-2.4205
X2.2605Y-2.5205
X2.2605Y-2.6205
X2.4969Y-1.4671
X2.5Y-2.1339
X2.5Y-2.2339
X2.5Y-2.3339
X2.5Y-2.4339
X2.5969Y-1.4671
X2.6969Y-1.4671
X2.6969Y-1.8189
X2.6969Y-1.9189
X2.6969Y-2.0189
X2.6969Y-2.1189
T6
X1.7375Y-2.3622
X1.7375Y-2.6181
X1.9147Y-2.3622
X1.9147Y-2.6181
X2.0054Y-2.3622
X2.0054Y-2.6181
X2.1826Y-2.3622
X2.1826Y-2.6181
M30
