%TF.GenerationSoftware,KiCad,Pcbnew,8.0.6*%
%TF.CreationDate,2024-11-23T22:45:46-08:00*%
%TF.ProjectId,OBDGauge,4f424447-6175-4676-952e-6b696361645f,rev?*%
%TF.SameCoordinates,Original*%
%TF.FileFunction,Copper,L1,Top*%
%TF.FilePolarity,Positive*%
%FSLAX46Y46*%
G04 Gerber Fmt 4.6, Leading zero omitted, Abs format (unit mm)*
G04 Created by KiCad (PCBNEW 8.0.6) date 2024-11-23 22:45:46*
%MOMM*%
%LPD*%
G01*
G04 APERTURE LIST*
%TA.AperFunction,ComponentPad*%
%ADD10R,1.600000X1.600000*%
%TD*%
%TA.AperFunction,ComponentPad*%
%ADD11O,1.600000X1.600000*%
%TD*%
%TA.AperFunction,ComponentPad*%
%ADD12O,1.700000X1.700000*%
%TD*%
%TA.AperFunction,ComponentPad*%
%ADD13R,1.700000X1.700000*%
%TD*%
%TA.AperFunction,ComponentPad*%
%ADD14C,1.400000*%
%TD*%
%TA.AperFunction,ComponentPad*%
%ADD15O,1.400000X1.400000*%
%TD*%
%TA.AperFunction,ComponentPad*%
%ADD16C,1.800000*%
%TD*%
%TA.AperFunction,ComponentPad*%
%ADD17C,1.750000*%
%TD*%
%TA.AperFunction,ComponentPad*%
%ADD18C,2.000000*%
%TD*%
%TA.AperFunction,ComponentPad*%
%ADD19O,2.400000X1.600000*%
%TD*%
%TA.AperFunction,ComponentPad*%
%ADD20R,2.400000X1.600000*%
%TD*%
%TA.AperFunction,ComponentPad*%
%ADD21R,1.800000X1.800000*%
%TD*%
%TA.AperFunction,ComponentPad*%
%ADD22C,1.600000*%
%TD*%
%TA.AperFunction,ComponentPad*%
%ADD23R,1.300000X1.300000*%
%TD*%
%TA.AperFunction,ComponentPad*%
%ADD24C,1.300000*%
%TD*%
%TA.AperFunction,Conductor*%
%ADD25C,0.200000*%
%TD*%
G04 APERTURE END LIST*
D10*
%TO.P,D1,1,K*%
%TO.N,/VSUPPLY*%
X29500000Y-40899410D03*
D11*
%TO.P,D1,2,A*%
%TO.N,/9V OUT*%
X29500000Y-53599410D03*
%TD*%
D12*
%TO.P,J3,4,Pin_4*%
%TO.N,/5V*%
X68500000Y-53820000D03*
%TO.P,J3,3,Pin_3*%
%TO.N,GNDREF*%
X68500000Y-51280000D03*
%TO.P,J3,2,Pin_2*%
%TO.N,/DIG-DIO*%
X68500000Y-48740000D03*
D13*
%TO.P,J3,1,Pin_1*%
%TO.N,/DIG-CLK*%
X68500000Y-46200000D03*
%TD*%
D14*
%TO.P,R1,1*%
%TO.N,Net-(U1A--)*%
X45500000Y-31000000D03*
D15*
%TO.P,R1,2*%
%TO.N,/5V*%
X53120000Y-31000000D03*
%TD*%
D16*
%TO.P,TEST2,1*%
%TO.N,GNDREF*%
X56500000Y-72500000D03*
%TD*%
D17*
%TO.P,SW1,1,1*%
%TO.N,GNDREF*%
X44132666Y-66500000D03*
D18*
X44132666Y-60000000D03*
%TO.P,SW1,2,2*%
%TO.N,/SW1*%
X48632666Y-66500000D03*
D17*
X48632666Y-60000000D03*
%TD*%
D13*
%TO.P,J2,1,Pin_1*%
%TO.N,GNDREF*%
X63420000Y-37264906D03*
D12*
%TO.P,J2,2,Pin_2*%
%TO.N,/RING*%
X65960000Y-37264906D03*
%TO.P,J2,3,Pin_3*%
%TO.N,/5V*%
X68500000Y-37264906D03*
%TD*%
D19*
%TO.P,U1,8,V+*%
%TO.N,/12V*%
X45880000Y-46120000D03*
%TO.P,U1,7*%
%TO.N,/K-IN*%
X45880000Y-43580000D03*
%TO.P,U1,6,-*%
%TO.N,Net-(U1B--)*%
X45880000Y-41040000D03*
%TO.P,U1,5,+*%
%TO.N,/K+*%
X45880000Y-38500000D03*
%TO.P,U1,4,V-*%
%TO.N,GNDREF*%
X53500000Y-38500000D03*
%TO.P,U1,3,+*%
%TO.N,/K-OUT*%
X53500000Y-41040000D03*
%TO.P,U1,2,-*%
%TO.N,Net-(U1A--)*%
X53500000Y-43580000D03*
D20*
%TO.P,U1,1*%
%TO.N,Net-(Q1-B)*%
X53500000Y-46120000D03*
%TD*%
D16*
%TO.P,TEST1,1*%
%TO.N,/12V*%
X43500000Y-70500000D03*
%TD*%
D18*
%TO.P,SW2,1,1*%
%TO.N,GNDREF*%
X55437901Y-60000000D03*
D17*
X55437901Y-66500000D03*
D18*
%TO.P,SW2,2,2*%
%TO.N,/SW2*%
X50937901Y-60000000D03*
D17*
X50937901Y-66500000D03*
%TD*%
D14*
%TO.P,R4,1*%
%TO.N,GNDREF*%
X45392266Y-53363298D03*
D15*
%TO.P,R4,2*%
%TO.N,Net-(U1B--)*%
X53012266Y-53363298D03*
%TD*%
D21*
%TO.P,D2,1,K*%
%TO.N,GNDREF*%
X62500000Y-66000000D03*
D16*
%TO.P,D2,2,A*%
%TO.N,Net-(D2-A)*%
X65040000Y-66000000D03*
%TD*%
D14*
%TO.P,R3,1*%
%TO.N,/12V*%
X45392266Y-51082931D03*
D15*
%TO.P,R3,2*%
%TO.N,Net-(U1B--)*%
X53012266Y-51082931D03*
%TD*%
%TO.P,R2,2*%
%TO.N,GNDREF*%
X53120000Y-33500000D03*
D14*
%TO.P,R2,1*%
%TO.N,Net-(U1A--)*%
X45500000Y-33500000D03*
%TD*%
D10*
%TO.P,A1,1,TX1*%
%TO.N,unconnected-(A1-TX1-Pad1)*%
X57417895Y-31000000D03*
D11*
%TO.P,A1,2,RX1*%
%TO.N,unconnected-(A1-RX1-Pad2)*%
X57417895Y-33540000D03*
%TO.P,A1,3,~{RESET}*%
%TO.N,unconnected-(A1-~{RESET}-Pad3)*%
X57417895Y-36080000D03*
%TO.P,A1,4,GND*%
%TO.N,GNDREF*%
X57417895Y-38620000D03*
%TO.P,A1,5,D2*%
%TO.N,/RING*%
X57417895Y-41160000D03*
%TO.P,A1,6,D3*%
%TO.N,/K-OUT*%
X57417895Y-43700000D03*
%TO.P,A1,7,D4*%
%TO.N,/K-IN*%
X57417895Y-46240000D03*
%TO.P,A1,8,D5*%
%TO.N,/DIG-CLK*%
X57417895Y-48780000D03*
%TO.P,A1,9,D6*%
%TO.N,/DIG-DIO*%
X57417895Y-51320000D03*
%TO.P,A1,10,D7*%
%TO.N,/BATMON*%
X57417895Y-53860000D03*
%TO.P,A1,11,D8*%
%TO.N,/SW1*%
X57417895Y-56400000D03*
%TO.P,A1,12,D9*%
%TO.N,/SW2*%
X57417895Y-58940000D03*
%TO.P,A1,13,D10*%
%TO.N,unconnected-(A1-D10-Pad13)*%
X57417895Y-61480000D03*
%TO.P,A1,14,MOSI*%
%TO.N,unconnected-(A1-MOSI-Pad14)*%
X57417895Y-64020000D03*
%TO.P,A1,15,MISO*%
%TO.N,unconnected-(A1-MISO-Pad15)*%
X57417895Y-66560000D03*
%TO.P,A1,16,SCK*%
%TO.N,unconnected-(A1-SCK-Pad16)*%
X42177895Y-66560000D03*
%TO.P,A1,17,3V3*%
%TO.N,unconnected-(A1-3V3-Pad17)*%
X42177895Y-64020000D03*
%TO.P,A1,18,AREF*%
%TO.N,unconnected-(A1-AREF-Pad18)*%
X42177895Y-61480000D03*
%TO.P,A1,19,A0*%
%TO.N,/BATMON*%
X42177895Y-58940000D03*
%TO.P,A1,20,A1*%
%TO.N,unconnected-(A1-A1-Pad20)*%
X42177895Y-56400000D03*
%TO.P,A1,21,A2*%
%TO.N,unconnected-(A1-A2-Pad21)*%
X42177895Y-53860000D03*
%TO.P,A1,22,A3*%
%TO.N,unconnected-(A1-A3-Pad22)*%
X42177895Y-51320000D03*
%TO.P,A1,23,SDA/A4*%
%TO.N,unconnected-(A1-SDA{slash}A4-Pad23)*%
X42177895Y-48780000D03*
%TO.P,A1,24,SCL/A5*%
%TO.N,unconnected-(A1-SCL{slash}A5-Pad24)*%
X42177895Y-46240000D03*
%TO.P,A1,25,A6*%
%TO.N,unconnected-(A1-A6-Pad25)*%
X42177895Y-43700000D03*
%TO.P,A1,26,A7*%
%TO.N,unconnected-(A1-A7-Pad26)*%
X42177895Y-41160000D03*
%TO.P,A1,27,+5V*%
%TO.N,/5V*%
X42177895Y-38620000D03*
%TO.P,A1,28,~{RESET}*%
%TO.N,unconnected-(A1-~{RESET}-Pad28)*%
X42177895Y-36080000D03*
%TO.P,A1,29,GND*%
%TO.N,GNDREF*%
X42177895Y-33540000D03*
%TO.P,A1,30,VIN*%
%TO.N,/VSUPPLY*%
X42177895Y-31000000D03*
%TD*%
D15*
%TO.P,R7,2*%
%TO.N,Net-(D2-A)*%
X68289676Y-64120000D03*
D14*
%TO.P,R7,1*%
%TO.N,/K+*%
X68289676Y-56500000D03*
%TD*%
%TO.P,R5,1*%
%TO.N,/12V*%
X60500000Y-49810000D03*
D15*
%TO.P,R5,2*%
%TO.N,/BATMON*%
X60500000Y-42190000D03*
%TD*%
D13*
%TO.P,J4,1,Pin_1*%
%TO.N,/EN*%
X37300000Y-58000000D03*
D12*
%TO.P,J4,2,Pin_2*%
%TO.N,/12V*%
X34760000Y-58000000D03*
%TO.P,J4,3,Pin_3*%
%TO.N,GNDREF*%
X32220000Y-58000000D03*
%TO.P,J4,4,Pin_4*%
%TO.N,/9V OUT*%
X29680000Y-58000000D03*
%TD*%
D10*
%TO.P,C1,1*%
%TO.N,/VSUPPLY*%
X33827246Y-34539399D03*
D22*
%TO.P,C1,2*%
%TO.N,GNDREF*%
X38827246Y-34539399D03*
%TD*%
D23*
%TO.P,Q1,1,E*%
%TO.N,/K+*%
X63470000Y-33770000D03*
D24*
%TO.P,Q1,2,B*%
%TO.N,Net-(Q1-B)*%
X62000000Y-32500000D03*
%TO.P,Q1,3,C*%
%TO.N,GNDREF*%
X60730000Y-33770000D03*
%TD*%
D14*
%TO.P,R6,1*%
%TO.N,GNDREF*%
X63000000Y-49810000D03*
D15*
%TO.P,R6,2*%
%TO.N,/BATMON*%
X63000000Y-42190000D03*
%TD*%
D12*
%TO.P,J1,4,Pin_4*%
%TO.N,/K+*%
X63500000Y-61820000D03*
%TO.P,J1,3,Pin_3*%
%TO.N,/K-*%
X63500000Y-59280000D03*
%TO.P,J1,2,Pin_2*%
%TO.N,GNDREF*%
X63500000Y-56740000D03*
D13*
%TO.P,J1,1,Pin_1*%
%TO.N,/12V*%
X63500000Y-54200000D03*
%TD*%
D25*
%TO.N,/BATMON*%
X59500000Y-67500000D02*
X59500000Y-55942105D01*
X59500000Y-55942105D02*
X57417895Y-53860000D01*
X57000000Y-70000000D02*
X59500000Y-67500000D01*
X40117895Y-61000000D02*
X40000000Y-61000000D01*
X40000000Y-68000000D02*
X40500000Y-68500000D01*
X46000000Y-70000000D02*
X57000000Y-70000000D01*
X40500000Y-68500000D02*
X44500000Y-68500000D01*
X42177895Y-58940000D02*
X40117895Y-61000000D01*
X40000000Y-61000000D02*
X40000000Y-68000000D01*
X44500000Y-68500000D02*
X46000000Y-70000000D01*
X57417895Y-53860000D02*
X57417895Y-53860001D01*
X57417895Y-53860001D02*
X57778947Y-54221053D01*
%TO.N,GNDREF*%
X63420000Y-38080000D02*
X63420000Y-35920000D01*
X63000000Y-49810000D02*
X64470000Y-51280000D01*
X53120000Y-38380000D02*
X53000000Y-38500000D01*
X63420000Y-38080000D02*
X62880000Y-38620000D01*
X64470000Y-51280000D02*
X68500000Y-51280000D01*
X61500000Y-35500000D02*
X60730000Y-34730000D01*
X63000000Y-35500000D02*
X61500000Y-35500000D01*
X57297895Y-38500000D02*
X57417895Y-38620000D01*
X53500000Y-68437901D02*
X55437901Y-66500000D01*
X44079616Y-54675948D02*
X44079616Y-67136411D01*
X44132666Y-66500000D02*
X46500000Y-68867334D01*
X53000000Y-69000000D02*
X53500000Y-68500000D01*
X44000000Y-51971032D02*
X45768330Y-53739362D01*
X46500000Y-68867334D02*
X46500000Y-69000000D01*
X46500000Y-69000000D02*
X53000000Y-69000000D01*
X45392266Y-53363298D02*
X44079616Y-54675948D01*
X53500000Y-33880000D02*
X53120000Y-33500000D01*
X53120000Y-38620000D02*
X53000000Y-38500000D01*
X62880000Y-38620000D02*
X57417895Y-38620000D01*
X44000000Y-35362105D02*
X44000000Y-51971032D01*
X53500000Y-68500000D02*
X53500000Y-68437901D01*
X42177895Y-33540000D02*
X44000000Y-35362105D01*
X53500000Y-38500000D02*
X53500000Y-33880000D01*
X63420000Y-35920000D02*
X63000000Y-35500000D01*
X53500000Y-38500000D02*
X57297895Y-38500000D01*
X55340802Y-67217207D02*
X55340802Y-60717207D01*
X60730000Y-34730000D02*
X60730000Y-33770000D01*
%TO.N,/5V*%
X38500000Y-29000000D02*
X37500000Y-30000000D01*
X37500000Y-30000000D02*
X37500000Y-36500000D01*
X68500000Y-35500000D02*
X68500000Y-37264906D01*
X53120000Y-29120000D02*
X53120000Y-31000000D01*
X37500000Y-36500000D02*
X39620000Y-38620000D01*
X62000000Y-29000000D02*
X68500000Y-35500000D01*
X39620000Y-38620000D02*
X42177895Y-38620000D01*
X38500000Y-29000000D02*
X62000000Y-29000000D01*
%TO.N,/9V OUT*%
X29500000Y-57820000D02*
X29680000Y-58000000D01*
X29500000Y-53599410D02*
X29500000Y-57820000D01*
%TO.N,/RING*%
X59077895Y-39500000D02*
X63724906Y-39500000D01*
X57417895Y-41160000D02*
X59077895Y-39500000D01*
X63724906Y-39500000D02*
X65960000Y-37264906D01*
%TO.N,/K-OUT*%
X53500000Y-41040000D02*
X54757895Y-41040000D01*
X54757895Y-41040000D02*
X57417895Y-43700000D01*
%TO.N,/K-IN*%
X57260000Y-46240000D02*
X54500000Y-49000000D01*
X54500000Y-49000000D02*
X52500000Y-49000000D01*
X52500000Y-49000000D02*
X47080000Y-43580000D01*
X47080000Y-43580000D02*
X45880000Y-43580000D01*
X57417895Y-46240000D02*
X57260000Y-46240000D01*
%TO.N,/SW1*%
X57417895Y-56400000D02*
X50600000Y-56400000D01*
X50600000Y-56400000D02*
X48579616Y-58420384D01*
X48579616Y-58420384D02*
X48579616Y-67136411D01*
%TO.N,/SW2*%
X50840802Y-60717207D02*
X50840802Y-67217207D01*
X57417895Y-58940000D02*
X56477895Y-58000000D01*
X52937901Y-58000000D02*
X50937901Y-60000000D01*
X56477895Y-58000000D02*
X52937901Y-58000000D01*
%TO.N,/DIG-CLK*%
X57197895Y-49000000D02*
X59997895Y-46200000D01*
X68500000Y-46200000D02*
X59997895Y-46200000D01*
%TO.N,/DIG-DIO*%
X59000000Y-49000000D02*
X60000000Y-48000000D01*
X57417895Y-51320000D02*
X59000000Y-49737895D01*
X65740000Y-48740000D02*
X68500000Y-48740000D01*
X59000000Y-49737895D02*
X59000000Y-49000000D01*
X65000000Y-48000000D02*
X65740000Y-48740000D01*
X60000000Y-48000000D02*
X65000000Y-48000000D01*
%TO.N,Net-(U1A--)*%
X53000000Y-43580000D02*
X52580000Y-43580000D01*
X50500000Y-41500000D02*
X50500000Y-39960000D01*
X50500000Y-39960000D02*
X45500000Y-34960000D01*
X45500000Y-34960000D02*
X45500000Y-31000000D01*
X52580000Y-43580000D02*
X50500000Y-41500000D01*
%TD*%
M02*
