%TF.GenerationSoftware,KiCad,Pcbnew,8.0.6*%
%TF.CreationDate,2024-11-23T22:45:46-08:00*%
%TF.ProjectId,OBDGauge,4f424447-6175-4676-952e-6b696361645f,rev?*%
%TF.SameCoordinates,Original*%
%TF.FileFunction,Soldermask,Top*%
%TF.FilePolarity,Negative*%
%FSLAX46Y46*%
G04 Gerber Fmt 4.6, Leading zero omitted, Abs format (unit mm)*
G04 Created by KiCad (PCBNEW 8.0.6) date 2024-11-23 22:45:46*
%MOMM*%
%LPD*%
G01*
G04 APERTURE LIST*
%ADD10R,1.600000X1.600000*%
%ADD11O,1.600000X1.600000*%
%ADD12O,1.700000X1.700000*%
%ADD13R,1.700000X1.700000*%
%ADD14C,1.400000*%
%ADD15O,1.400000X1.400000*%
%ADD16C,1.800000*%
%ADD17C,2.100000*%
%ADD18C,1.750000*%
%ADD19C,2.000000*%
%ADD20O,2.400000X1.600000*%
%ADD21R,2.400000X1.600000*%
%ADD22R,1.800000X1.800000*%
%ADD23C,1.600000*%
%ADD24R,1.300000X1.300000*%
%ADD25C,1.300000*%
G04 APERTURE END LIST*
D10*
%TO.C,D1*%
X29500000Y-40899410D03*
D11*
X29500000Y-53599410D03*
%TD*%
D12*
%TO.C,J3*%
X68500000Y-53820000D03*
X68500000Y-51280000D03*
X68500000Y-48740000D03*
D13*
X68500000Y-46200000D03*
%TD*%
D14*
%TO.C,R1*%
X45500000Y-31000000D03*
D15*
X53120000Y-31000000D03*
%TD*%
D16*
%TO.C,TEST2*%
X56500000Y-72500000D03*
%TD*%
D17*
%TO.C,HOLE2*%
X66408990Y-41911550D03*
%TD*%
D18*
%TO.C,SW1*%
X44132666Y-66500000D03*
D19*
X44132666Y-60000000D03*
X48632666Y-66500000D03*
D18*
X48632666Y-60000000D03*
%TD*%
D13*
%TO.C,J2*%
X63420000Y-37264906D03*
D12*
X65960000Y-37264906D03*
X68500000Y-37264906D03*
%TD*%
D20*
%TO.C,U1*%
X45880000Y-46120000D03*
X45880000Y-43580000D03*
X45880000Y-41040000D03*
X45880000Y-38500000D03*
X53500000Y-38500000D03*
X53500000Y-41040000D03*
X53500000Y-43580000D03*
D21*
X53500000Y-46120000D03*
%TD*%
D17*
%TO.C,HOLE1*%
X38027066Y-63832220D03*
%TD*%
D16*
%TO.C,TEST1*%
X43500000Y-70500000D03*
%TD*%
D19*
%TO.C,SW2*%
X55437901Y-60000000D03*
D18*
X55437901Y-66500000D03*
D19*
X50937901Y-60000000D03*
D18*
X50937901Y-66500000D03*
%TD*%
D14*
%TO.C,R4*%
X45392266Y-53363298D03*
D15*
X53012266Y-53363298D03*
%TD*%
D22*
%TO.C,D2*%
X62500000Y-66000000D03*
D16*
X65040000Y-66000000D03*
%TD*%
D14*
%TO.C,R3*%
X45392266Y-51082931D03*
D15*
X53012266Y-51082931D03*
%TD*%
%TO.C,R2*%
X53120000Y-33500000D03*
D14*
X45500000Y-33500000D03*
%TD*%
D10*
%TO.C,A1*%
X57417895Y-31000000D03*
D11*
X57417895Y-33540000D03*
X57417895Y-36080000D03*
X57417895Y-38620000D03*
X57417895Y-41160000D03*
X57417895Y-43700000D03*
X57417895Y-46240000D03*
X57417895Y-48780000D03*
X57417895Y-51320000D03*
X57417895Y-53860000D03*
X57417895Y-56400000D03*
X57417895Y-58940000D03*
X57417895Y-61480000D03*
X57417895Y-64020000D03*
X57417895Y-66560000D03*
X42177895Y-66560000D03*
X42177895Y-64020000D03*
X42177895Y-61480000D03*
X42177895Y-58940000D03*
X42177895Y-56400000D03*
X42177895Y-53860000D03*
X42177895Y-51320000D03*
X42177895Y-48780000D03*
X42177895Y-46240000D03*
X42177895Y-43700000D03*
X42177895Y-41160000D03*
X42177895Y-38620000D03*
X42177895Y-36080000D03*
X42177895Y-33540000D03*
X42177895Y-31000000D03*
%TD*%
D15*
%TO.C,R7*%
X68289676Y-64120000D03*
D14*
X68289676Y-56500000D03*
%TD*%
%TO.C,R5*%
X60500000Y-49810000D03*
D15*
X60500000Y-42190000D03*
%TD*%
D13*
%TO.C,J4*%
X37300000Y-58000000D03*
D12*
X34760000Y-58000000D03*
X32220000Y-58000000D03*
X29680000Y-58000000D03*
%TD*%
D10*
%TO.C,C1*%
X33827246Y-34539399D03*
D23*
X38827246Y-34539399D03*
%TD*%
D24*
%TO.C,Q1*%
X63470000Y-33770000D03*
D25*
X62000000Y-32500000D03*
X60730000Y-33770000D03*
%TD*%
D14*
%TO.C,R6*%
X63000000Y-49810000D03*
D15*
X63000000Y-42190000D03*
%TD*%
D12*
%TO.C,J1*%
X63500000Y-61820000D03*
X63500000Y-59280000D03*
X63500000Y-56740000D03*
D13*
X63500000Y-54200000D03*
%TD*%
M02*
